<svg width="123" height="25" viewBox="0 0 123 25" fill="none" xmlns="http://www.w3.org/2000/svg">
<path d="M1.06182 17.4669C0.84168 16.1173 0.879885 14.9142 2.5719 12.7553C3.60349 11.4424 5.47199 10.5488 7.70254 10.4719C10.5207 10.373 14.98 11.6731 17.0123 11.5999C20.0161 11.4937 21.0513 9.41348 21.3315 8.42649C21.6662 7.24357 21.5844 6.06431 20.4727 4.72025C19.3611 3.37619 18.4987 2.38004 16.088 1.59814C16.4519 2.01015 16.5683 2.42582 16.4992 3.1418C16.4137 4.0061 15.5204 4.93449 14.134 5.20367C11.9144 5.63399 10.9228 4.92534 8.46304 4.73673C3.9146 4.38515 1.3038 7.76911 0.770724 8.98682C0.0375165 10.6477 -0.633833 13.4676 1.06182 17.4669Z" fill="white"/>
<path d="M22.5361 7.48608C22.7562 8.83564 22.718 10.0387 21.0278 12.1995C19.9981 13.5124 18.1296 14.4078 15.899 14.4866C13.0808 14.5854 8.62151 13.289 6.58927 13.3622C3.58549 13.4721 2.55026 15.5505 2.2719 16.5393C1.93713 17.7222 2.019 18.9014 3.13246 20.2455C4.24592 21.5896 5.1083 22.5839 7.51897 23.3585C7.1642 22.9483 7.03684 22.5308 7.1078 21.8166C7.19149 20.9505 8.08298 20.0221 9.47298 19.7511C11.6908 19.319 12.6842 20.0276 15.144 20.2162C19.6924 20.5641 22.4979 16.6272 23.0055 15.4076C23.4458 14.3675 24.2317 11.4871 22.5361 7.48608Z" fill="white"/>
<path d="M11.9637 21.5672C11.3028 21.5373 10.6445 21.668 10.0443 21.948C9.51846 22.2135 9.25465 22.5413 9.25101 22.935C9.24738 23.3287 9.50209 23.6675 10.0206 23.9403C10.6169 24.2228 11.2664 24.3735 11.9254 24.3824C12.5844 24.3912 13.2377 24.258 13.8413 23.9916C14.3762 23.7224 14.6455 23.3928 14.6509 23.0064C14.6564 22.6201 14.3871 22.274 13.8468 21.9901C13.2604 21.7034 12.6156 21.5586 11.9637 21.5672Z" fill="white"/>
<path d="M11.9637 0.774671C11.3028 0.744859 10.6445 0.875494 10.0443 1.15555C9.51846 1.42107 9.25465 1.74884 9.25101 2.14254C9.24738 2.53623 9.50209 2.875 10.0206 3.14784C10.6169 3.43032 11.2664 3.58104 11.9254 3.58989C12.5844 3.59873 13.2377 3.46549 13.8413 3.19911C14.3762 2.92993 14.6455 2.60032 14.6509 2.21395C14.6564 1.82758 14.3871 1.48149 13.8468 1.19767C13.2604 0.910964 12.6156 0.766116 11.9637 0.774671Z" fill="white"/>
<path d="M29.248 21.3969L32.0644 3.81787H36.7821L34.6589 16.9802H41.5725L40.8556 21.3987L29.248 21.3969Z" fill="white"/>
<path d="M42.6641 21.3969L45.4805 3.81787H50.1999L47.3817 21.3969H42.6641Z" fill="white"/>
<path d="M58.2489 21.838C55.6254 21.838 53.6053 20.9749 52.1886 19.2487C50.7719 17.5226 50.2801 15.2935 50.7131 12.5614C51.1461 9.86107 52.3354 7.67224 54.2809 5.99491C56.1715 4.33745 58.6038 3.44142 61.1108 3.47891C63.0199 3.47891 64.6155 4.00689 65.8976 5.06286C66.5108 5.5468 67.0151 6.15605 67.3773 6.85043C67.7395 7.54482 67.9514 8.30858 67.999 9.09138L63.5269 9.95019C63.4822 9.62654 63.3717 9.31563 63.2023 9.03682C63.033 8.75802 62.8084 8.51728 62.5427 8.32962C61.9523 7.89724 61.2366 7.67322 60.5068 7.69238C59.8931 7.6897 59.2851 7.81101 58.7188 8.04911C58.1525 8.28722 57.6395 8.63728 57.2101 9.07856C56.2628 10.0027 55.6703 11.1929 55.4325 12.6493C55.1948 14.1057 55.4107 15.288 56.0802 16.1962C56.751 17.1203 57.7274 17.5824 59.0094 17.5824C60.0263 17.5864 61.0163 17.2545 61.8276 16.6375C62.6241 16.085 63.1957 15.2619 63.4378 14.3193H57.9797L58.4709 11.2759L68.4211 11.2997C68.2124 14.409 67.1542 16.9409 65.2462 18.8953C63.3383 20.8498 61.0059 21.8307 58.2489 21.838Z" fill="white"/>
<path d="M66.8145 21.3969L74.6851 3.81787H81.5987L83.8129 21.3969H78.9333L78.6204 18.7216H72.873L71.6849 21.3969H66.8145ZM74.394 15.0391H78.3074L77.5469 8.21628H77.325L74.394 15.0391Z" fill="white"/>
<path d="M86.8899 21.558C86.6302 21.5738 86.3706 21.5256 86.1338 21.4174C85.8969 21.3092 85.6899 21.1443 85.5308 20.9372C85.2215 20.5258 85.1305 19.999 85.2579 19.3569C85.3596 18.7657 85.6641 18.2292 86.1184 17.8407C86.5505 17.4531 87.1097 17.2398 87.6886 17.2419C87.948 17.2262 88.2074 17.2743 88.4442 17.3821C88.681 17.49 88.8881 17.6543 89.0476 17.8609C89.3569 18.2747 89.4485 18.7948 89.3224 19.421C89.2131 20.0186 88.9052 20.5611 88.4491 20.9592C88.0218 21.3476 87.4656 21.5612 86.8899 21.558Z" fill="white"/>
<path d="M90.2266 21.3223L92.4098 10.2988H96.0486L95.7375 11.9231L95.9194 11.9011C96.9237 10.6632 97.9771 10.0437 99.0796 10.0425C100.131 10.0425 100.911 10.4594 101.419 11.2932C101.928 12.1269 102.049 13.1841 101.783 14.4647L100.446 21.3223H96.7927L98.0062 15.1697C98.1154 14.6203 98.0808 14.1974 97.897 13.8769C97.8075 13.7201 97.6758 13.5919 97.5172 13.5071C97.3585 13.4222 97.1793 13.3841 97.0001 13.3971C96.7734 13.4004 96.5497 13.4494 96.3422 13.5412C96.1347 13.633 95.9476 13.7659 95.792 13.9318C95.4246 14.2971 95.177 14.7667 95.0825 15.2777L93.8926 21.3205L90.2266 21.3223Z" fill="white"/>
<path d="M107.228 21.6002C105.54 21.6002 104.281 21.0625 103.451 19.987C102.621 18.9115 102.379 17.4911 102.723 15.7259C103.058 14.0034 103.847 12.6215 105.089 11.5802C106.316 10.5459 107.873 9.99247 109.473 10.0219C111.147 10.0219 112.381 10.5523 113.174 11.6131C113.967 12.674 114.188 14.0876 113.838 15.8541C113.788 16.2172 113.703 16.5747 113.585 16.9216H106.253C106.228 17.4271 106.379 17.9254 106.679 18.3316C106.829 18.5056 107.017 18.6424 107.228 18.7313C107.439 18.8203 107.667 18.8589 107.896 18.8443C108.779 18.8443 109.468 18.4384 109.964 17.6266L112.985 18.2895C112.523 19.3239 111.732 20.1734 110.736 20.7029C109.664 21.3041 108.455 21.6133 107.228 21.6002ZM106.637 14.7828L110.374 14.7407C110.461 14.2543 110.358 13.7527 110.085 13.3417C109.955 13.1566 109.781 13.0076 109.578 12.9086C109.376 12.8097 109.152 12.764 108.927 12.7759C108.424 12.781 107.94 12.9772 107.574 13.3253C107.143 13.7224 106.82 14.2243 106.637 14.7828Z" fill="white"/>
<path d="M118.224 21.6003C117.122 21.6003 116.315 21.2085 115.805 20.4248C115.294 19.641 115.166 18.6089 115.419 17.3283L116.26 13.135H114.955L115.501 10.293H116.942L118.261 6.85962H121.123L120.444 10.2985H122.566L122.02 13.1405H119.898L119.092 17.1781C119 17.5226 119.042 17.8896 119.211 18.2036C119.295 18.3329 119.412 18.4369 119.55 18.5046C119.688 18.5723 119.842 18.6011 119.995 18.5881C120.331 18.585 120.666 18.5369 120.99 18.4453L120.482 21.2231C119.758 21.4841 118.993 21.6119 118.224 21.6003Z" fill="white"/>
</svg>
