<svg width="71" height="35" viewBox="0 0 71 35" fill="none" xmlns="http://www.w3.org/2000/svg">
<g clip-path="url(#clip0_11401_9109)">
<path d="M19.4704 12.2807C19.5049 11.8661 19.4359 10.5532 17.8843 10.415C16.0224 10.2768 15.1949 12.2807 14.8502 13.2481C13.9537 15.7704 12.2986 21.3332 6.36816 19.7093L6.43712 19.7438C7.54046 20.193 8.74724 20.4003 9.95403 20.4003C10.5057 20.4003 11.0574 20.3657 11.6435 20.2621C15.781 19.5365 18.8498 16.2196 19.4704 12.2807Z" fill="white"/>
<path d="M0.368166 9.13592C0.333687 9.55053 0.402645 10.8635 1.95422 11.0017C3.81611 11.1399 4.64362 9.13592 4.98841 8.16847C5.88488 5.64623 7.5399 0.083472 13.4704 1.70738L13.4014 1.67283C12.367 1.22366 11.1602 1.01636 9.91895 1.01636C9.36731 1.01636 8.78116 1.05091 8.22949 1.15456C4.09195 1.88014 1.02328 5.19707 0.368166 9.13592Z" fill="white"/>
<path d="M19.0215 7.33951C18.5733 6.09567 17.8837 4.95548 16.9527 4.02258C16.4355 3.50432 15.8149 3.19335 15.1598 3.0206C12.6428 2.46778 11.0567 3.71162 9.91891 5.47375C8.50525 7.65047 7.74671 10.7601 6.47097 12.6259C5.09179 14.6298 2.50582 15.6664 0.712891 13.5933C0.74737 13.7315 0.816329 13.8697 0.850808 14.0079C1.29904 15.2517 1.98863 16.4265 2.91958 17.3249C3.43677 17.8086 4.0574 18.1541 4.71251 18.3269C7.22952 18.8451 8.81557 17.6358 9.95341 15.8737C11.3671 13.6969 12.1256 10.5873 13.4014 8.72156C14.7805 6.71759 17.3665 5.68105 19.1595 7.75413C19.0905 7.61592 19.056 7.47772 19.0215 7.33951Z" fill="white"/>
<path fill-rule="evenodd" clip-rule="evenodd" d="M61.4658 27.8641H65.7413L63.7759 14.0781H58.3626L51.915 27.8641H56.1905L57.1904 25.5492H61.259L61.4658 27.8641ZM58.3971 22.6469L60.4314 17.9133L60.9142 22.6469H58.3971Z" fill="white"/>
<path fill-rule="evenodd" clip-rule="evenodd" d="M53.6731 17.8443L55.4315 14.0781H45.9151L42.9844 27.8641H47.2599L49.3976 17.8443H53.6731Z" fill="white"/>
<path fill-rule="evenodd" clip-rule="evenodd" d="M24.1586 14.0774L22.4001 22.2661C22.4001 22.2661 21.9519 25.0648 19.6072 25.0648L18.9521 28.1398C18.9521 28.1398 25.055 29.5565 26.6755 22.4043C26.71 22.2661 27.641 17.8436 27.641 17.8436H29.9511L27.8134 27.8289H32.1233L35.0886 14.043H24.1586V14.0774Z" fill="white"/>
<path d="M68.7402 14.0781C69.7056 14.0781 70.4642 14.8383 70.4642 15.8057C70.4642 16.7732 69.7056 17.5332 68.7057 17.5332C67.7403 17.5332 66.9473 16.7732 66.9473 15.8057C66.9818 14.8383 67.7403 14.0781 68.7402 14.0781ZM68.7057 14.4236C67.9816 14.4236 67.3956 15.0456 67.3956 15.8057C67.3956 16.5659 67.9816 17.1877 68.7402 17.1877C69.4643 17.1877 70.0504 16.5659 70.0504 15.8403C70.0504 15.0456 69.4643 14.4236 68.7057 14.4236ZM68.4644 16.6695H68.0506V14.9419C68.223 14.9074 68.4299 14.9074 68.7057 14.9074C69.016 14.9074 69.1884 14.9419 69.2919 15.0456C69.3953 15.1147 69.4643 15.2529 69.4643 15.4257C69.4643 15.6329 69.2919 15.7712 69.1195 15.8403V15.8748C69.2919 15.9094 69.3608 16.0476 69.4298 16.2895C69.4643 16.5659 69.5332 16.635 69.5677 16.704H69.154C69.085 16.635 69.085 16.4967 69.016 16.2895C68.9815 16.1167 68.8781 16.0476 68.6712 16.0476H68.4988V16.6695H68.4644ZM68.4644 15.7021H68.6368C68.8436 15.7021 69.0505 15.6329 69.0505 15.4602C69.0505 15.2874 68.9471 15.1838 68.6712 15.1838C68.5678 15.1838 68.4988 15.1838 68.4644 15.2184V15.7021Z" fill="white"/>
<path fill-rule="evenodd" clip-rule="evenodd" d="M41.8818 17.4988L39.6752 27.8296H35.3652L37.0892 19.8482C40.1924 19.1226 41.8818 17.4988 41.8818 17.4988ZM37.7443 16.8077C40.8474 16.0822 42.6059 14.0781 42.6059 14.0781H38.3305L37.7443 16.8077Z" fill="white"/>
<path d="M18.194 33.7707H17.7803L18.5044 30.7993H20.4007L20.3317 31.1448H18.8492L18.194 33.7707Z" fill="white"/>
<path d="M21.9869 30.7988C22.5386 30.7988 22.8834 30.937 22.8834 31.4553C22.8489 32.4572 22.0214 32.5954 21.6766 32.5954H20.8146L20.5388 33.7703H20.125L20.8491 30.7988H21.9869ZM20.9181 32.2499H21.6766C22.4007 32.2499 22.4697 31.6972 22.4697 31.5244C22.4697 31.2134 22.2283 31.1443 21.8835 31.1443H21.1939L20.9181 32.2499Z" fill="white"/>
<path d="M25.2623 30.7991H25.7105L24.1589 33.2177C23.8486 33.7359 23.5728 33.805 23.2624 33.805C23.1245 33.805 23.0556 33.805 22.9521 33.7705L23.0211 33.425C23.09 33.4595 23.1935 33.4595 23.2969 33.4595C23.4693 33.4595 23.6762 33.425 23.8831 33.0103L23.2969 30.7991H23.7107L24.1589 32.5957L25.2623 30.7991Z" fill="white"/>
<path d="M25.7789 33.7707H25.3652L26.0893 30.7993H28.3649L27.6409 33.7707H27.2271L27.8477 31.1448H26.3651L25.7789 33.7707Z" fill="white"/>
<path d="M28.5367 33.7703H28.123L29.916 30.7988H30.3642L30.778 33.7703H30.3642L30.2608 33.0101H29.0195L28.5367 33.7703ZM30.2263 32.6646L30.0539 31.2134L29.1919 32.6646H30.2263Z" fill="white"/>
<path d="M34.8127 30.7991H35.3643L33.6749 32.2157L34.7438 33.7705H34.261L33.2266 32.2157L32.8474 33.7705H32.4336L33.1577 30.7991H33.5714L33.2611 32.1466L34.8127 30.7991Z" fill="white"/>
<path d="M35.0892 32.6996C35.1237 31.6976 35.7098 30.7302 36.8132 30.7302C37.4683 30.7302 38.0545 31.0412 38.02 31.8704C37.9855 32.9069 37.3993 33.8743 36.296 33.8743C35.0547 33.8743 35.0547 32.9415 35.0892 32.6996ZM37.6062 31.9049C37.6407 31.0412 36.8821 31.0412 36.7787 31.0412C35.8822 31.0412 35.5374 32.0086 35.5374 32.6305C35.5029 33.356 35.9857 33.4943 36.3649 33.4943C37.2269 33.5288 37.5717 32.5614 37.6062 31.9049Z" fill="white"/>
<path d="M39.1233 31.3517L39.0888 31.4554L38.5372 33.7358H38.1924L38.9164 30.7644H39.4336L39.8129 33.2176L41.33 30.7644H41.8816L41.1576 33.7358H40.7783L41.33 31.4554L41.3644 31.3517L39.8474 33.7703H39.5026L39.1233 31.3517Z" fill="white"/>
<path d="M42.2955 33.7705H41.8818L42.6058 30.7991H44.8815L44.1574 33.7705H43.7437L44.3643 31.1446H42.8817L42.2955 33.7705Z" fill="white"/>
<path d="M45.0534 33.7705H44.6396L46.4326 30.7991H46.8464L47.2601 33.7705H46.8464L46.7429 33.0103H45.5017L45.0534 33.7705ZM46.7429 32.6648L46.5705 31.2136L45.7085 32.6648H46.7429Z" fill="white"/>
<path d="M48.0876 33.7707H47.6738L48.3979 30.7993H48.8117L48.5013 32.0432H49.984L50.2943 30.7993H50.7081L49.984 33.7707H49.5702L49.915 32.3887H48.4324L48.0876 33.7707Z" fill="white"/>
<path d="M51.8801 30.7991L51.156 33.7705H50.7422L51.4663 30.7991H51.8801Z" fill="white"/>
<path d="M54.5703 30.7995H55.053L54.3289 33.7709H53.9497L54.5358 31.3869L52.4671 33.7709H51.9844L52.7085 30.7995H53.1222L52.5361 33.1836L54.5703 30.7995ZM53.5015 30.1431V30.1776C53.5015 30.2813 53.536 30.4886 53.8462 30.4886C54.0876 30.4886 54.2255 30.385 54.3289 30.1431H54.6393C54.5358 30.454 54.26 30.6959 53.8462 30.6959C53.3636 30.6959 53.1567 30.4195 53.1912 30.1431H53.5015Z" fill="white"/>
</g>
<defs>
<clipPath id="clip0_11401_9109">
<rect width="70.1026" height="34.2" fill="white" transform="translate(0.362305 0.464844)"/>
</clipPath>
</defs>
</svg>
