<svg width="62" height="37" viewBox="0 0 62 37" fill="none" xmlns="http://www.w3.org/2000/svg">
<path d="M28.9466 18.5648C28.9466 9.70519 36.1334 2.54937 44.962 2.54937C45.7054 2.54937 46.4489 2.61132 47.1614 2.70426C44.869 1.62004 42.3289 1.00049 39.6029 1.00049C29.9069 1.00049 22.0386 8.86879 22.0386 18.5648C22.0386 28.2608 29.9069 36.1291 39.6029 36.1291C42.2979 36.1291 44.869 35.5095 47.1614 34.4253C46.4489 34.5182 45.7054 34.5802 44.962 34.5802C36.1024 34.5802 28.9466 27.4244 28.9466 18.5648Z" stroke="white" stroke-miterlimit="10"/>
<path d="M60.9771 18.5649C60.9771 10.4797 54.9675 3.78856 47.1611 2.70435C53.0778 5.52331 57.1669 11.5639 57.1669 18.5649C57.1669 25.5658 53.0778 31.6064 47.1611 34.4254C54.9675 33.3412 60.9771 26.65 60.9771 18.5649Z" stroke="white" stroke-miterlimit="10"/>
<path d="M57.1669 18.5647C57.1669 11.5638 53.0778 5.52316 47.1611 2.7042C46.4486 2.61127 45.7052 2.54932 44.9617 2.54932C36.1021 2.54932 28.9463 9.73611 28.9463 18.5647C28.9463 27.3933 36.1331 34.5801 44.9617 34.5801C45.7052 34.5801 46.4486 34.5182 47.1611 34.4252C53.0778 31.6063 57.1669 25.5657 57.1669 18.5647Z" stroke="white" stroke-miterlimit="10"/>
<path d="M29.9379 15.436C30.3096 15.436 30.6194 15.498 30.8672 15.6219C31.115 15.7458 31.3318 15.9007 31.4867 16.1175C31.6416 16.3344 31.7655 16.5512 31.8585 16.83C31.9204 17.1088 31.9824 17.3876 31.9824 17.6664V21.1049H30.5884V18.0382C30.5884 17.8833 30.5884 17.6974 30.5574 17.5425C30.5264 17.3566 30.4954 17.2018 30.4025 17.0778C30.3406 16.923 30.2167 16.83 30.0927 16.7371C29.9688 16.6442 29.783 16.6132 29.5661 16.6132C29.3493 16.6132 29.1634 16.6442 29.0085 16.7371C28.8536 16.83 28.7297 16.9539 28.6368 17.1088C28.5439 17.2637 28.4509 17.4186 28.42 17.6045C28.389 17.7903 28.358 17.9762 28.358 18.1311V21.1359H26.964V17.7903C26.964 17.4496 26.8711 17.1708 26.7162 16.923C26.5613 16.7061 26.2825 16.5822 25.9417 16.5822C25.7249 16.5822 25.57 16.6132 25.4151 16.7061C25.2602 16.799 25.1363 16.892 25.0434 17.0469C24.9505 17.1708 24.8885 17.3566 24.8266 17.5115C24.7646 17.6974 24.7646 17.8833 24.7646 18.0691V21.1049H23.3706V15.6219H24.6717V16.5203H24.7026C24.7646 16.3963 24.8575 16.2415 24.9505 16.1175C25.0434 15.9936 25.1673 15.8697 25.3222 15.7768C25.4771 15.6839 25.632 15.5909 25.8178 15.529C26.0037 15.467 26.1896 15.436 26.4374 15.436C26.8711 15.436 27.2118 15.529 27.5216 15.7148C27.8004 15.9007 28.0172 16.1485 28.1721 16.4583C28.358 16.1175 28.6058 15.8697 28.9156 15.6839C29.1634 15.529 29.5351 15.436 29.9379 15.436Z" fill="white"/>
<path d="M38.8594 18.4407C38.8594 18.5027 38.8594 18.5646 38.8594 18.6266C38.8594 18.6885 38.8594 18.7505 38.8594 18.8124H34.6465C34.6465 18.9983 34.7084 19.1842 34.8014 19.37C34.8943 19.5249 35.0182 19.6798 35.1421 19.8037C35.297 19.9276 35.4519 20.0206 35.6378 20.0825C35.8236 20.1445 36.0095 20.1754 36.2263 20.1754C36.5671 20.1754 36.8769 20.1135 37.0937 19.9896C37.3415 19.8657 37.5274 19.6798 37.6823 19.463L38.6116 20.2064C38.054 20.9499 37.2796 21.3216 36.2573 21.3216C35.8236 21.3216 35.4209 21.2597 35.0802 21.1358C34.7084 21.0118 34.3987 20.826 34.1508 20.5782C33.8721 20.3303 33.6862 20.0206 33.5313 19.6798C33.3764 19.3081 33.3145 18.9054 33.3145 18.4717C33.3145 18.038 33.3764 17.6353 33.5313 17.2636C33.6862 16.8918 33.8721 16.582 34.1508 16.3342C34.3987 16.0864 34.7084 15.8696 35.0802 15.7457C35.4519 15.5908 35.8236 15.5288 36.2263 15.5288C36.5981 15.5288 36.9698 15.5908 37.2796 15.7147C37.6203 15.8386 37.8991 16.0244 38.116 16.2723C38.3638 16.5201 38.5497 16.8299 38.6736 17.2016C38.7665 17.5114 38.8594 17.9451 38.8594 18.4407ZM37.4654 17.8211C37.4654 17.6353 37.4345 17.4804 37.4035 17.3255C37.3415 17.1706 37.2796 17.0157 37.1557 16.8918C37.0627 16.7679 36.9079 16.675 36.753 16.613C36.5981 16.5511 36.3812 16.4891 36.1644 16.4891C35.7617 16.4891 35.39 16.613 35.1112 16.8608C34.8324 17.1087 34.6775 17.4184 34.6465 17.8211H37.4654Z" fill="white"/>
<path d="M45.7981 21.1359H44.497V20.2995H44.466C44.2802 20.6092 44.0014 20.8571 43.6606 21.0429C43.3199 21.1978 42.9481 21.2907 42.5764 21.2907C42.1427 21.2907 41.771 21.1978 41.4302 21.0429C41.0895 20.888 40.8107 20.6712 40.5938 20.4234C40.346 20.1446 40.1911 19.8348 40.0672 19.494C39.9433 19.1533 39.8813 18.7506 39.8813 18.3479C39.8813 17.9452 39.9433 17.5734 40.0672 17.2017C40.1911 16.8609 40.377 16.5512 40.6248 16.2724C40.8726 16.0246 41.1514 15.8077 41.4612 15.6528C41.802 15.4979 42.1427 15.436 42.5454 15.436C42.7932 15.436 43.0101 15.467 43.2269 15.5289C43.4128 15.5909 43.5987 15.6528 43.7535 15.7458C43.9084 15.8387 44.0323 15.9316 44.1253 16.0246C44.2182 16.1175 44.3111 16.2104 44.4041 16.3033H44.4351V12.4312H45.829V21.1359H45.7981ZM41.2444 18.3479C41.2444 18.5647 41.2753 18.7816 41.3373 18.9984C41.3993 19.2152 41.4922 19.4011 41.6161 19.587C41.74 19.7419 41.9259 19.8967 42.1117 19.9897C42.2976 20.0826 42.5454 20.1446 42.8242 20.1446C43.072 20.1446 43.2889 20.0826 43.5057 19.9897C43.6916 19.8967 43.8775 19.7419 44.0323 19.587C44.1872 19.4321 44.2802 19.2152 44.3421 19.0294C44.4041 18.8125 44.466 18.5957 44.466 18.3788C44.466 18.162 44.4351 17.9452 44.3421 17.7283C44.2802 17.5115 44.1563 17.3256 44.0323 17.1397C43.8775 16.9849 43.7226 16.83 43.5057 16.737C43.3199 16.6441 43.072 16.5821 42.8242 16.5821C42.5454 16.5821 42.3286 16.6441 42.1117 16.737C41.9259 16.83 41.74 16.9849 41.6161 17.1397C41.4922 17.2946 41.3993 17.5115 41.3373 17.6973C41.2753 17.9142 41.2444 18.131 41.2444 18.3479Z" fill="white"/>
<path d="M47.2852 13.7324C47.2852 13.5155 47.3781 13.3297 47.533 13.1438C47.6879 12.9889 47.9047 12.896 48.1525 12.896C48.4003 12.896 48.6172 12.9889 48.8031 13.1438C48.9889 13.2987 49.0509 13.4846 49.0509 13.7324C49.0509 13.9802 48.9579 14.1661 48.8031 14.321C48.6172 14.4759 48.4313 14.5688 48.1525 14.5688C47.8737 14.5688 47.6879 14.4759 47.533 14.321C47.3781 14.1661 47.2852 13.9492 47.2852 13.7324ZM47.502 15.622H48.896V21.136H47.502V15.622Z" fill="white"/>
<path d="M53.9763 20.4237H53.9453C53.8214 20.6715 53.5735 20.8574 53.2638 21.0123C52.954 21.1672 52.6132 21.2601 52.2105 21.2601C51.9937 21.2601 51.7459 21.2291 51.529 21.1672C51.2812 21.1052 51.0644 21.0123 50.8475 20.8884C50.6307 20.7645 50.4758 20.5786 50.3519 20.3617C50.228 20.1449 50.166 19.8661 50.166 19.5563C50.166 19.1536 50.2899 18.8129 50.5068 18.565C50.7546 18.3172 51.0334 18.1314 51.4051 18.0074C51.7768 17.8835 52.1796 17.7906 52.6442 17.7596C53.0779 17.7286 53.5426 17.6977 53.9453 17.6977V17.5738C53.9453 17.233 53.8214 16.9852 53.5735 16.7993C53.3257 16.6444 53.0159 16.5515 52.6752 16.5515C52.3964 16.5515 52.1176 16.6135 51.8388 16.7374C51.56 16.8613 51.3432 17.0162 51.1573 17.1711L50.4448 16.3347C50.7546 16.0559 51.1263 15.839 51.529 15.6841C51.9317 15.5292 52.3654 15.4673 52.7681 15.4673C53.2638 15.4673 53.6665 15.5292 53.9763 15.6841C54.286 15.808 54.5339 15.9939 54.7197 16.2107C54.9056 16.4276 55.0295 16.6754 55.0914 16.9542C55.1534 17.233 55.2154 17.5118 55.2154 17.7906V21.1362H53.9143V20.4237H53.9763ZM53.9453 18.596H53.6355C53.4187 18.596 53.1708 18.596 52.923 18.627C52.6752 18.658 52.4584 18.689 52.2415 18.7509C52.0247 18.8129 51.8698 18.9058 51.7149 19.0297C51.591 19.1536 51.498 19.3085 51.498 19.5253C51.498 19.6493 51.529 19.7732 51.591 19.8661C51.6529 19.959 51.7149 20.021 51.8078 20.0829C51.9008 20.1449 51.9937 20.1759 52.1176 20.2069C52.2415 20.2378 52.3344 20.2378 52.4584 20.2378C52.923 20.2378 53.2947 20.1139 53.5426 19.8661C53.7904 19.6183 53.9143 19.2775 53.9143 18.8438V18.596H53.9453Z" fill="white"/>
<path d="M0.26123 12.9888H1.71718V19.8348H5.18667V21.1359H0.26123V12.9888Z" fill="white"/>
<path d="M5.89941 13.7324C5.89941 13.5155 5.99235 13.3297 6.14723 13.1438C6.30212 12.9889 6.51897 12.896 6.76679 12.896C7.01461 12.896 7.23145 12.9889 7.41732 13.1438C7.60318 13.2987 7.66514 13.4846 7.66514 13.7324C7.66514 13.9802 7.5722 14.1661 7.41732 14.321C7.23145 14.4759 7.04558 14.5688 6.76679 14.5688C6.48799 14.5688 6.30212 14.4759 6.14723 14.321C5.96137 14.1661 5.89941 13.9492 5.89941 13.7324ZM6.08528 15.622H7.47927V21.136H6.08528V15.622Z" fill="white"/>
<path d="M14.7587 15.622V20.6403C14.7587 21.136 14.6968 21.6006 14.5729 22.0033C14.449 22.406 14.2631 22.7468 14.0153 23.0256C13.7674 23.3044 13.4267 23.5212 13.055 23.6761C12.6523 23.831 12.1876 23.893 11.661 23.893C11.4441 23.893 11.1963 23.862 10.9485 23.831C10.7007 23.8 10.4528 23.7381 10.205 23.6452C9.9572 23.5832 9.74036 23.4593 9.52352 23.3664C9.30668 23.2424 9.08983 23.1185 8.93495 22.9636L9.74036 21.9104C10.0192 22.1582 10.298 22.3441 10.6387 22.499C10.9795 22.6229 11.3202 22.6848 11.661 22.6848C12.0017 22.6848 12.2805 22.6229 12.4974 22.53C12.7142 22.437 12.9001 22.3131 13.024 22.1272C13.1479 21.9724 13.2408 21.7555 13.3028 21.5387C13.3647 21.3218 13.3957 21.043 13.3957 20.7952V20.3925H13.3647C13.1789 20.6713 12.9001 20.8572 12.5903 21.0121C12.2805 21.1669 11.9398 21.2289 11.5371 21.2289C11.1344 21.2289 10.7626 21.1669 10.4219 21.0121C10.0811 20.8572 9.80232 20.6403 9.5545 20.3925C9.30668 20.1447 9.15179 19.8349 8.9969 19.4942C8.87299 19.1534 8.81104 18.7817 8.81104 18.379C8.81104 17.9763 8.87299 17.6045 8.9969 17.2638C9.12081 16.923 9.30668 16.6132 9.52352 16.3344C9.77134 16.0866 10.0501 15.8698 10.3599 15.7149C10.7007 15.56 11.0724 15.498 11.4751 15.498C11.8778 15.498 12.2186 15.591 12.5593 15.7459C12.9001 15.9008 13.1789 16.1486 13.3647 16.4893H13.3957V15.6529H14.7587V15.622ZM11.8159 16.5823C11.568 16.5823 11.3512 16.6132 11.1344 16.7062C10.9485 16.7991 10.7626 16.923 10.6387 17.0779C10.5148 17.2328 10.3909 17.4187 10.3289 17.6355C10.267 17.8523 10.205 18.0692 10.205 18.317C10.205 18.5339 10.236 18.7507 10.3289 18.9675C10.3909 19.1844 10.5148 19.3702 10.6387 19.5251C10.7626 19.68 10.9485 19.8349 11.1344 19.9278C11.3202 20.0208 11.5371 20.0827 11.7849 20.0827C12.0327 20.0827 12.2805 20.0208 12.4664 19.9278C12.6832 19.8349 12.8381 19.711 12.993 19.5561C13.1479 19.4012 13.2408 19.2154 13.3338 18.9985C13.3957 18.7817 13.4577 18.5648 13.4577 18.348C13.4577 18.1002 13.4267 17.8833 13.3338 17.6665C13.2718 17.4496 13.1479 17.2638 12.993 17.1089C12.8381 16.954 12.6832 16.8301 12.4664 16.7371C12.2805 16.6132 12.0637 16.5823 11.8159 16.5823Z" fill="white"/>
<path d="M19.839 20.4232H19.8081C19.6842 20.671 19.4363 20.8569 19.1266 21.0118C18.8168 21.1667 18.476 21.2596 18.0733 21.2596C17.8565 21.2596 17.6087 21.2286 17.3918 21.1667C17.144 21.1047 16.9272 21.0118 16.7103 20.8879C16.4935 20.764 16.3386 20.5781 16.2147 20.3613C16.0908 20.1444 16.0288 19.8656 16.0288 19.5558C16.0288 19.1531 16.1527 18.8124 16.3696 18.5646C16.6174 18.3167 16.8962 18.1309 17.2679 18.007C17.6396 17.883 18.0424 17.7901 18.507 17.7591C18.9407 17.7282 19.4054 17.6972 19.8081 17.6972V17.5733C19.8081 17.2325 19.6842 16.9847 19.4363 16.7988C19.1885 16.6439 18.8787 16.551 18.538 16.551C18.2592 16.551 17.9804 16.613 17.7016 16.7369C17.4228 16.8608 17.206 17.0157 17.0201 17.1706L16.3076 16.3342C16.6174 16.0554 16.9891 15.8385 17.3918 15.6836C17.7945 15.5288 18.2282 15.4668 18.6309 15.4668C19.1266 15.4668 19.5293 15.5288 19.839 15.6836C20.1488 15.8076 20.3966 15.9934 20.5825 16.2103C20.7684 16.4271 20.8923 16.6749 20.9542 16.9537C21.0162 17.2325 21.0782 17.5113 21.0782 17.7901V21.1357H19.7771V20.4232H19.839ZM19.8081 18.5955H19.4983C19.2815 18.5955 19.0336 18.5955 18.7858 18.6265C18.538 18.6575 18.3211 18.6885 18.1043 18.7504C17.8875 18.8124 17.7326 18.9053 17.5777 19.0292C17.4538 19.1531 17.3608 19.308 17.3608 19.5249C17.3608 19.6488 17.3918 19.7727 17.4538 19.8656C17.5157 19.9585 17.5777 20.0205 17.6706 20.0825C17.7636 20.1444 17.8565 20.1754 17.9804 20.2064C18.1043 20.2373 18.1972 20.2373 18.3211 20.2373C18.7858 20.2373 19.1575 20.1134 19.4054 19.8656C19.6532 19.6178 19.7771 19.277 19.7771 18.8434V18.5955H19.8081Z" fill="white"/>
</svg>
