<svg width="166" height="35" viewBox="0 0 166 35" fill="none" xmlns="http://www.w3.org/2000/svg">
<g clip-path="url(#clip0_11401_9147)">
<path fill-rule="evenodd" clip-rule="evenodd" d="M9.09111 20.7504C7.93095 20.569 6.8171 20.1668 5.81083 19.566C8.29506 19.4707 11.9459 18.4633 12.4537 15.6316C12.4995 15.311 12.4995 14.9856 12.4537 14.665C14.8968 14.665 18.8221 13.6167 19.3162 10.6897C19.7692 8.07575 16.4614 7.16361 15.6791 5.10788C15.5041 4.65991 15.4463 4.17528 15.5111 3.69917C15.5759 3.22306 15.7612 2.77098 16.0497 2.38507C18.0588 3.59046 19.5796 5.45496 20.3486 7.65559C21.1176 9.85622 21.0864 12.2543 20.2603 14.4345C19.4343 16.6147 17.8654 18.4396 15.8255 19.5931C13.7857 20.7466 11.4033 21.156 9.09111 20.7504ZM5.59123 19.4707C3.57876 18.2593 2.05675 16.388 1.28876 14.1808C0.520776 11.9735 0.555183 9.56934 1.38602 7.3846C2.21686 5.19986 3.79182 3.37213 5.83814 2.21791C7.88447 1.06369 10.2733 0.655668 12.591 1.0645C13.7234 1.28454 14.8125 1.68449 15.8164 2.24893C13.3733 2.34423 9.73618 3.35167 9.21463 6.18339C9.16887 6.51767 9.16887 6.85655 9.21463 7.19083C6.73041 7.19083 2.84623 8.19828 2.35213 11.1253C1.89921 13.8481 5.20693 14.6513 6.00298 16.7071C6.17224 17.1584 6.22325 17.645 6.15123 18.1212C6.07922 18.5974 5.88654 19.0477 5.59123 19.4299V19.4707ZM9.28326 7.29975C9.74991 9.12403 12.2341 10.0226 12.8792 11.7788C13.0533 12.2327 13.1018 12.7245 13.0198 13.2032C12.9377 13.682 12.7281 14.1303 12.4126 14.5016C11.9459 12.6773 9.46168 11.7788 8.81661 10.0089C8.64253 9.55506 8.59401 9.06325 8.67606 8.5845C8.75811 8.10574 8.96775 7.65747 9.28326 7.28613V7.29975Z" fill="white"/>
<path d="M57.9663 25.5288H119.564H57.9663ZM123.833 25.5288L136.995 25.4607L123.833 25.5288ZM141.606 25.4607H158.625H141.606Z" fill="white"/>
<path d="M57.9663 25.5288H119.564M123.833 25.5288L136.995 25.4607M141.606 25.4607H158.625" stroke="white" stroke-width="0.675" stroke-miterlimit="2.61"/>
<path fill-rule="evenodd" clip-rule="evenodd" d="M52.9296 22.1118L52.5865 19.0078L50.6925 22.1118H52.9296ZM57.0471 25.7332H53.3277L53.1904 24.5623H49.2102L48.4965 25.7332H44.5711L51.4336 15.1823H55.6746L57.0471 25.7332ZM49.4847 15.1823L48.6612 18.4496H45.4632L43.9672 25.7332H39.8497L42.0045 15.1823H49.4847ZM40.083 18.6402L38.7105 25.7332H34.4283L34.6342 24.6713C35.2381 21.6217 36.7341 19.035 40.1242 18.6402H40.083ZM40.8105 15.1823L40.1379 18.4496H35.9106L36.5832 15.1823H40.8516H40.8105ZM35.3205 15.1823L33.2343 25.7332H29.1168L30.6128 18.4632H29.2403L28.3619 22.3024C27.7031 25.175 25.2463 26.3866 22.0347 25.8012L22.7346 23.0103C24.3405 23.2282 24.9855 21.9757 25.2875 20.6007L26.4816 15.155H35.4577L35.3205 15.1823Z" fill="white"/>
<path d="M107.157 14.3519H104.906L105.263 12.5957H107.5L107.157 14.3519Z" fill="white"/>
<path fill-rule="evenodd" clip-rule="evenodd" d="M66.2413 15.0873H59.6945L58.02 23.2557H61.9865C63.661 23.2557 65.4041 22.4525 65.6511 20.8733C65.7515 20.5273 65.7628 20.1618 65.6838 19.8103C65.6049 19.4589 65.4382 19.1328 65.1992 18.8618C64.9602 18.5908 64.6564 18.3837 64.3157 18.2594C63.975 18.1351 63.6083 18.0977 63.2492 18.1505H61.163C61.2591 17.6876 61.3552 17.2519 61.4513 16.7891H65.8844L66.255 15.0056L66.2413 15.0873ZM63.359 20.778C63.2812 21.0775 63.1029 21.3418 62.8535 21.5274C62.604 21.713 62.2982 21.8088 61.9865 21.799H60.4219L60.8336 19.7705H62.3571C62.4974 19.7415 62.6427 19.748 62.7797 19.7896C62.9167 19.8311 63.0409 19.9062 63.1409 20.0081C63.2408 20.1099 63.3132 20.2351 63.3513 20.3721C63.3894 20.509 63.3921 20.6533 63.359 20.7916V20.778Z" fill="white"/>
<path d="M70.2359 15.046C70.2359 15.2639 68.63 23.337 68.63 23.337H66.4478C66.4478 23.337 67.2713 19.2528 67.3811 18.5312C67.6967 16.3666 69.1241 15.0188 70.2359 15.046ZM70.4006 14.379H68.1497L68.5065 12.6091H70.7711L70.4006 14.379Z" fill="white"/>
<path d="M72.5963 18.3275H73.7217C74.0158 18.3861 74.3214 18.3315 74.5763 18.1747C74.8312 18.0179 75.0164 17.7708 75.0942 17.4834C75.1903 17.0069 74.8746 16.5713 73.859 16.5713C72.9988 16.5923 72.1508 16.7772 71.361 17.1159L71.6355 15.5366C72.5583 15.1981 73.5339 15.023 74.5178 15.0193C77.0981 15.0193 77.5373 16.1901 77.3451 17.1839C77.2637 17.6307 77.0509 18.0436 76.7334 18.3707C76.4159 18.6977 76.0079 18.9243 75.5609 19.0218C75.7929 19.0274 76.0207 19.0845 76.2275 19.189C76.4343 19.2935 76.6149 19.4427 76.7558 19.6256C76.8967 19.8085 76.9945 20.0205 77.0419 20.2458C77.0892 20.4712 77.085 20.7043 77.0295 20.9278C76.7412 22.3709 75.1766 23.4736 72.7884 23.4736C71.7542 23.4681 70.7335 23.2405 69.7964 22.8065L70.2905 21.2545C71.1432 21.6789 72.0815 21.9069 73.0355 21.9216C73.4162 21.9742 73.8033 21.8908 74.1276 21.6862C74.452 21.4817 74.6924 21.1695 74.806 20.8053C74.9158 20.2335 74.5864 19.7978 73.4335 19.7978H72.3081L72.5963 18.3275Z" fill="white"/>
<path d="M81.6411 15.1414L81.0372 18.259H84.4959L85.0998 15.1414H87.2821L85.6763 23.3098H83.5215L84.2077 19.7838H80.7216L80.0353 23.3098H77.853L79.4589 15.1414H81.6411Z" fill="white"/>
<path d="M90.1507 18.4362C90.2312 17.9329 90.4788 17.4708 90.8543 17.123C91.2297 16.7753 91.7115 16.5619 92.2231 16.5166C92.4623 16.4952 92.7029 16.5365 92.921 16.6362C93.1391 16.7359 93.3269 16.8906 93.4658 17.0849C93.6048 17.2792 93.6898 17.5063 93.7126 17.7434C93.7354 17.9805 93.6951 18.2194 93.5956 18.4362H90.1507ZM95.476 19.9065L95.572 19.4164C95.7093 18.6812 96.3681 15.019 92.6074 15.019C91.4154 15.0449 90.27 15.4839 89.37 16.2597C88.4701 17.0355 87.8722 18.0993 87.6802 19.2666C87.1037 22.18 88.8331 23.5142 91.3173 23.5142C92.3405 23.5128 93.3563 23.3426 94.3231 23.0105L94.6387 21.3904C93.772 21.7628 92.8383 21.9573 91.8937 21.9622C91.6125 22.0149 91.3225 21.9991 91.0487 21.9163C90.7749 21.8335 90.5255 21.686 90.3217 21.4866C90.118 21.2871 89.966 21.0417 89.8788 20.7712C89.7917 20.5008 89.7719 20.2134 89.8213 19.9337H95.476V19.9065Z" fill="white"/>
<path d="M103.039 16.8027C102.585 16.6257 102.097 16.5517 101.611 16.586C101.125 16.6202 100.652 16.762 100.229 17.0009C99.8049 17.2398 99.4404 17.5698 99.1619 17.9666C98.8834 18.3634 98.6979 18.817 98.6191 19.2941C98.5033 19.5967 98.4649 19.9229 98.5072 20.2438C98.5494 20.5647 98.6711 20.8702 98.8614 21.1331C99.0517 21.396 99.3046 21.6081 99.5976 21.7504C99.8906 21.8927 100.215 21.9609 100.541 21.9488C101.154 21.9634 101.764 21.8618 102.339 21.6493L102.105 23.2286C101.392 23.4339 100.652 23.5393 99.9093 23.5417C96.9447 23.5417 96.0114 21.3907 96.4368 19.226C96.6799 18.022 97.3457 16.9425 98.3158 16.1797C99.2859 15.4168 100.497 15.0201 101.735 15.0601C102.341 15.057 102.945 15.1302 103.533 15.278L103.039 16.8027Z" fill="white"/>
<path d="M110.766 15.1416L110.162 18.2592H113.648L114.266 15.1416H116.448L114.842 23.31H112.646L113.319 19.8521H109.847L109.201 23.3781H106.978L108.598 15.2097H110.78L110.766 15.1416Z" fill="white"/>
<path d="M124.45 16.9386C124.787 16.7565 125.164 16.6628 125.548 16.6663C126.371 16.6663 127.071 17.3742 126.701 19.253C126.33 21.1317 125.328 21.8396 124.532 21.8396C124.182 21.8527 123.837 21.7576 123.544 21.5674L124.45 16.9386ZM123.077 12.6501L122.515 15.373C122.063 15.1204 121.551 14.9934 121.032 15.0054C119.742 15.0054 117.436 15.8495 116.778 19.253C116.201 22.2072 117.601 23.5006 119.372 23.5006C119.931 23.5054 120.485 23.3844 120.991 23.1466L120.277 26.7679H122.46L123.173 23.1466C123.626 23.3951 124.138 23.5174 124.656 23.5006C126.44 23.5006 128.334 22.2072 128.924 19.253C129.583 15.8495 127.62 15.0054 126.33 15.0054C125.769 15.0043 125.215 15.13 124.711 15.373L125.273 12.6501H123.146H123.077ZM121.293 21.581C120.957 21.7636 120.579 21.8573 120.195 21.8533C119.372 21.8533 118.672 21.1317 119.028 19.2666C119.385 17.4015 120.401 16.6799 121.197 16.6799C121.547 16.6686 121.892 16.7636 122.185 16.9522L121.293 21.581Z" fill="white"/>
<path d="M131.971 19.2664C131.996 18.5885 132.264 17.9415 132.727 17.4423C133.19 16.943 133.818 16.6243 134.497 16.5436C135.458 16.5436 136.35 17.3196 135.979 19.2664C135.955 19.9444 135.687 20.5913 135.224 21.0906C134.76 21.5898 134.133 21.9085 133.454 21.9892C132.534 21.9484 131.601 21.1724 131.971 19.2664ZM129.693 19.2664C129.158 21.9892 130.668 23.514 133.138 23.514C134.365 23.5472 135.562 23.1335 136.503 22.3509C137.444 21.5683 138.063 20.471 138.244 19.2664C138.779 16.5436 137.269 15.0188 134.799 15.0188C133.574 14.989 132.38 15.4043 131.442 16.1866C130.504 16.9689 129.887 18.0642 129.707 19.2664H129.693Z" fill="white"/>
<path d="M141.634 19.2668C141.671 18.6433 141.923 18.0514 142.348 17.5903C142.772 17.1293 143.344 16.8271 143.967 16.7345C144.845 16.7345 145.655 17.5105 145.339 19.2668C145.302 19.8903 145.05 20.4822 144.625 20.9432C144.201 21.4042 143.629 21.7064 143.006 21.799C142.141 21.7854 141.29 21.0094 141.634 19.2668ZM140.165 26.7817L140.769 23.6096L140.989 22.2482C141.172 22.6495 141.476 22.9843 141.86 23.2063C142.244 23.4282 142.687 23.5264 143.13 23.4871C144.941 23.4871 146.959 22.2755 147.549 19.2395C148.139 16.2036 146.78 14.9919 144.886 14.9919C144.296 15.0004 143.716 15.145 143.192 15.4144C142.668 15.6838 142.214 16.0705 141.867 16.5439L142.141 15.1145H140.234L138.024 26.7817H140.206H140.165Z" fill="white"/>
<path d="M152.256 23.3782L151.57 18.5452L151.419 17.1838H151.337L151.09 18.6677L150.17 23.3509H147.988L149.607 15.1825H152.654L153.45 19.8794L153.629 21.3361H153.78L154.493 19.8521L157.129 15.1553H160.176L158.556 23.3237H156.374L157.293 18.6405L157.623 17.1565H157.54L156.868 18.5179L154.288 23.3509H152.229L152.256 23.3782Z" fill="white"/>
<path d="M107.074 15.0462C107.074 15.2641 105.468 23.3372 105.468 23.3372H103.286C103.286 23.3372 104.109 19.253 104.219 18.5314C104.535 16.3668 105.962 15.0326 107.074 15.0462Z" fill="white"/>
<path d="M162.935 10.5939C163.052 10.461 163.197 10.3544 163.359 10.2814C163.521 10.2084 163.697 10.1706 163.875 10.1706C164.054 10.1706 164.23 10.2084 164.392 10.2814C164.554 10.3544 164.698 10.461 164.816 10.5939C165.047 10.8449 165.175 11.1727 165.175 11.5129C165.175 11.853 165.047 12.1809 164.816 12.4318C164.701 12.5665 164.558 12.6743 164.397 12.7473C164.236 12.8203 164.06 12.8567 163.882 12.8539C163.703 12.8578 163.525 12.8219 163.361 12.7489C163.197 12.6759 163.052 12.5676 162.935 12.4318C162.711 12.1801 162.589 11.8553 162.592 11.5197C162.586 11.1794 162.708 10.8491 162.935 10.5939ZM162.729 12.6769C163.027 12.9535 163.42 13.1074 163.827 13.1074C164.235 13.1074 164.628 12.9535 164.925 12.6769C165.082 12.5282 165.206 12.3496 165.292 12.1519C165.377 11.9542 165.421 11.7415 165.421 11.5265C165.421 11.3115 165.377 11.0988 165.292 10.9011C165.206 10.7034 165.082 10.5248 164.925 10.3761C164.629 10.1034 164.239 9.9519 163.834 9.9519C163.43 9.9519 163.04 10.1034 162.743 10.3761C162.584 10.5228 162.457 10.7003 162.369 10.8977C162.282 11.095 162.236 11.308 162.235 11.5235C162.234 11.7391 162.277 11.9526 162.362 12.151C162.447 12.3493 162.572 12.5283 162.729 12.6769ZM163.539 12.2957V11.6422H163.772C163.861 11.6121 163.958 11.6121 164.047 11.6422C164.057 11.6659 164.062 11.6913 164.062 11.7171C164.062 11.7428 164.057 11.7683 164.047 11.792V11.9417C164.041 11.9914 164.041 12.0418 164.047 12.0915C164.057 12.1422 164.081 12.1892 164.116 12.2276H164.418C164.407 12.1874 164.407 12.1453 164.418 12.1051C164.412 12.019 164.412 11.9325 164.418 11.8464C164.433 11.7701 164.433 11.6913 164.418 11.615C164.401 11.5745 164.375 11.5385 164.342 11.51C164.308 11.4816 164.268 11.4616 164.225 11.4516C164.314 11.4218 164.391 11.3646 164.445 11.2882C164.462 11.2258 164.462 11.1601 164.445 11.0976C164.45 11.0262 164.437 10.9547 164.405 10.8902C164.374 10.8257 164.326 10.7704 164.267 10.7301C164.162 10.6717 164.043 10.6434 163.923 10.6484H163.223V12.2276H163.525L163.539 12.2957ZM163.841 10.9343C163.918 10.9141 163.998 10.9141 164.074 10.9343C164.104 10.9559 164.127 10.9849 164.142 11.0184C164.156 11.052 164.161 11.0887 164.157 11.1249C164.179 11.1818 164.179 11.2449 164.157 11.3019C164.127 11.3275 164.092 11.3469 164.054 11.3586C164.016 11.3703 163.977 11.3741 163.937 11.3699H163.594V10.9343H163.896H163.841Z" fill="white"/>
<path d="M22.1294 30.9065H22.9117V33.6293H22.1294V30.9065Z" fill="white"/>
<path d="M27.2905 30.906H28.0729V31.8998H29.0199V30.906H29.8022V33.6288H29.0062V32.5397H28.0591V33.6424H27.2905V30.9196V30.906Z" fill="white"/>
<path d="M35.3607 33.2757C35.2001 33.3008 35.0359 33.2911 34.8794 33.2472C34.7229 33.2033 34.5779 33.1264 34.4543 33.0216C34.3307 32.9168 34.2314 32.7866 34.1634 32.6401C34.0953 32.4936 34.0601 32.3342 34.0601 32.1729C34.0601 32.0116 34.0953 31.8523 34.1634 31.7058C34.2314 31.5593 34.3307 31.4291 34.4543 31.3243C34.5779 31.2195 34.7229 31.1425 34.8794 31.0987C35.0359 31.0548 35.2001 31.0451 35.3607 31.0702V30.7571H36.1431V31.0566C36.3037 31.0315 36.4679 31.0412 36.6244 31.0851C36.7809 31.1289 36.9259 31.2059 37.0495 31.3107C37.1731 31.4155 37.2724 31.5457 37.3404 31.6921C37.4085 31.8386 37.4437 31.998 37.4437 32.1593C37.4437 32.3206 37.4085 32.48 37.3404 32.6265C37.2724 32.773 37.1731 32.9031 37.0495 33.0079C36.9259 33.1127 36.7809 33.1897 36.6244 33.2336C36.4679 33.2775 36.3037 33.2872 36.1431 33.2621V33.6433H35.3607V33.2757ZM35.3607 31.6148C35.2804 31.6022 35.1983 31.6071 35.1201 31.629C35.0418 31.6509 34.9693 31.6894 34.9075 31.7418C34.8457 31.7942 34.7961 31.8593 34.762 31.9325C34.728 32.0058 34.7104 32.0855 34.7104 32.1661C34.7104 32.2468 34.728 32.3265 34.762 32.3997C34.7961 32.473 34.8457 32.538 34.9075 32.5904C34.9693 32.6428 35.0418 32.6813 35.1201 32.7033C35.1983 32.7252 35.2804 32.7301 35.3607 32.7175V31.6148ZM36.0333 32.7175C36.1136 32.7301 36.1957 32.7252 36.2739 32.7033C36.3522 32.6813 36.4247 32.6428 36.4865 32.5904C36.5483 32.538 36.5979 32.473 36.632 32.3997C36.666 32.3265 36.6836 32.2468 36.6836 32.1661C36.6836 32.0855 36.666 32.0058 36.632 31.9325C36.5979 31.8593 36.5483 31.7942 36.4865 31.7418C36.4247 31.6894 36.3522 31.6509 36.2739 31.629C36.1957 31.6071 36.1136 31.6022 36.0333 31.6148V32.7175Z" fill="white"/>
<path d="M41.5785 32.2814C41.5731 31.9868 41.6561 31.6973 41.8172 31.4497C41.9782 31.2021 42.2099 31.0077 42.4827 30.8912C42.7556 30.7747 43.0572 30.7414 43.3492 30.7955C43.6412 30.8497 43.9103 30.9888 44.1223 31.1952C44.3343 31.4016 44.4795 31.666 44.5395 31.9545C44.5995 32.2431 44.5715 32.5429 44.4591 32.8156C44.3467 33.0883 44.155 33.3217 43.9085 33.486C43.6619 33.6503 43.3716 33.7381 43.0745 33.7381C42.8758 33.7565 42.6754 33.7317 42.4874 33.6653C42.2994 33.599 42.1282 33.4928 41.9857 33.3541C41.8433 33.2154 41.7331 33.0476 41.6628 32.8624C41.5924 32.6771 41.5637 32.4788 41.5785 32.2814ZM43.7608 32.2814C43.7423 32.1491 43.6857 32.0249 43.5979 31.9237C43.51 31.8225 43.3946 31.7486 43.2655 31.7108C43.1363 31.673 42.999 31.673 42.8698 31.7107C42.7406 31.7484 42.6252 31.8223 42.5373 31.9234C42.4494 32.0246 42.3927 32.1487 42.3741 32.281C42.3556 32.4133 42.3759 32.5481 42.4326 32.6692C42.4893 32.7903 42.58 32.8927 42.6939 32.9639C42.8077 33.0352 42.9399 33.0724 43.0745 33.071C43.1744 33.0698 43.273 33.0478 43.3638 33.0063C43.4546 32.9649 43.5356 32.9051 43.6015 32.8306C43.6675 32.7562 43.717 32.6689 43.7468 32.5742C43.7766 32.4796 43.786 32.3799 43.7745 32.2814H43.7608Z" fill="white"/>
<path d="M48.811 30.9065H49.9777C50.1002 30.9065 50.2216 30.9304 50.3348 30.977C50.4481 31.0235 50.5509 31.0917 50.6376 31.1776C50.7243 31.2636 50.793 31.3657 50.8399 31.478C50.8868 31.5903 50.911 31.7107 50.911 31.8323C50.911 31.9538 50.8868 32.0742 50.8399 32.1865C50.793 32.2988 50.7243 32.4009 50.6376 32.4869C50.5509 32.5728 50.4481 32.641 50.3348 32.6875C50.2216 32.7341 50.1002 32.758 49.9777 32.758H49.6071V33.6702H48.811V30.9473V30.9065ZM49.5934 32.1454H49.813C49.8599 32.1537 49.9082 32.1513 49.9541 32.1385C50.0001 32.1256 50.0425 32.1026 50.0781 32.0712C50.1138 32.0397 50.1418 32.0006 50.1601 31.9569C50.1783 31.9132 50.1864 31.8659 50.1835 31.8186C50.1877 31.7703 50.1799 31.7216 50.1609 31.6769C50.1418 31.6322 50.1121 31.5927 50.0743 31.5619C50.0365 31.5311 49.9917 31.5099 49.9438 31.5001C49.8959 31.4902 49.8463 31.4921 49.7992 31.5055H49.6071V32.1454H49.5934Z" fill="white"/>
<path d="M55.4678 30.9065H56.2502L56.7443 32.5402L57.2384 30.8521H58.007L58.4187 33.5749H57.6638L57.458 32.0637L57.0462 33.6566H56.4835L56.0168 32.0501L55.811 33.6566H55.0698L55.4678 30.9065Z" fill="white"/>
<path d="M63.3051 30.906H64.2521L65.2403 33.6288H64.4168L64.2658 33.1523H63.3051L63.1541 33.6288H62.3169L63.3051 30.906ZM63.4698 32.5397H64.1011L63.7855 31.5186L63.4698 32.5397Z" fill="white"/>
<path d="M69.3989 30.906H70.1813V33.0026H71.0459V30.906H71.8283V33.0026H72.1439V34.2142H71.4851V33.656H69.3989V30.9332V30.906Z" fill="white"/>
<path d="M76.2612 30.9065H77.0436V33.6293H76.2612V30.9065Z" fill="white"/>
<path d="M82.2319 30.9067V32.5404L83.3162 30.8795H84.0848V33.6023H83.3162V32.0095L82.2457 33.6704H81.4771V30.9476H82.2319V30.9067ZM83.6044 30.3213C83.5132 30.459 83.389 30.5719 83.2428 30.6501C83.0967 30.7283 82.9332 30.7692 82.7672 30.7692C82.6012 30.7692 82.4377 30.7283 82.2916 30.6501C82.1454 30.5719 82.0212 30.459 81.93 30.3213L82.3692 30.158C82.406 30.2295 82.462 30.2895 82.531 30.3314C82.6 30.3733 82.6794 30.3955 82.7603 30.3955C82.8413 30.3955 82.9206 30.3733 82.9897 30.3314C83.0587 30.2895 83.1147 30.2295 83.1515 30.158L83.6044 30.3213Z" fill="white"/>
<path d="M88.4487 30.9062H89.231V31.9001H90.1781V30.9062H90.9467V33.6291H90.1781V32.5399H89.231V33.6427H88.4487V30.9199V30.9062Z" fill="white"/>
<path d="M95.3394 30.9062H97.0138V31.5733H96.108V31.9545H96.9177V32.5399H96.108V32.9756H97.0001V33.6427H95.3394V30.9199V30.9062Z" fill="white"/>
<path d="M106.813 30.9065H107.829L108.817 33.6293H107.925L107.829 33.18H106.813L106.662 33.6565H105.825L106.813 30.9065ZM106.978 32.5402H107.609L107.293 31.5191L106.978 32.5402Z" fill="white"/>
<path d="M112.852 30.9065H114.526V31.5736H113.634V33.6702H112.852V30.9473V30.9065Z" fill="white"/>
<path d="M118.712 30.9065H120.387V31.5736H119.495V31.9548H120.304V32.5402H119.495V32.9758H120.387V33.6429H118.712V30.9201V30.9065Z" fill="white"/>
<path d="M124.684 30.906H125.466V31.8998H126.413V30.906H127.182V33.6288H126.4V32.5397H125.453V33.6424H124.684V30.9196V30.906Z" fill="white"/>
<path d="M131.957 31.5597H131.339V30.9062H133.343V31.5733H132.739V33.6699H131.957V31.5597Z" fill="white"/>
<path d="M139.561 33.5339C139.337 33.6786 139.073 33.7501 138.806 33.7381C138.583 33.7337 138.363 33.6787 138.164 33.5773C137.965 33.4759 137.792 33.3309 137.658 33.1531C137.525 32.9754 137.434 32.7697 137.392 32.5517C137.351 32.3337 137.36 32.1093 137.419 31.8954C137.479 31.6815 137.586 31.4839 137.734 31.3176C137.882 31.1513 138.067 31.0208 138.273 30.9359C138.48 30.851 138.703 30.814 138.926 30.8278C139.15 30.8415 139.367 30.9056 139.561 31.0153V31.8185C139.482 31.72 139.382 31.6397 139.268 31.5833C139.154 31.5269 139.029 31.4957 138.902 31.4918C138.802 31.4932 138.703 31.5152 138.611 31.5565C138.52 31.5978 138.438 31.6574 138.371 31.7316C138.304 31.8057 138.253 31.8929 138.222 31.9875C138.19 32.0821 138.179 32.1822 138.189 32.2814C138.181 32.3782 138.194 32.4755 138.226 32.5671C138.259 32.6587 138.31 32.7424 138.378 32.813C138.445 32.8836 138.526 32.9394 138.617 32.9768C138.707 33.0142 138.804 33.0323 138.902 33.0301C139.027 33.0263 139.149 32.9978 139.262 32.9464C139.375 32.895 139.477 32.8216 139.561 32.7306V33.5203V33.5339Z" fill="white"/>
<path d="M144.214 31.5595H143.596V30.906H145.6V31.5731H144.982V33.6697H144.2V31.5595H144.214Z" fill="white"/>
<path d="M151.117 30.9067C151.221 30.886 151.328 30.8889 151.43 30.9153C151.533 30.9417 151.628 30.9908 151.709 31.059C151.789 31.1272 151.853 31.2126 151.896 31.3088C151.938 31.4051 151.958 31.5096 151.954 31.6146C151.951 31.7436 151.907 31.8684 151.828 31.9711C151.749 32.0738 151.639 32.1491 151.515 32.1864C151.682 32.2155 151.833 32.3028 151.941 32.4325C152.05 32.5622 152.108 32.726 152.105 32.8943C152.102 33.0055 152.076 33.1149 152.027 33.2153C151.979 33.3157 151.91 33.4048 151.824 33.4767C151.739 33.5487 151.639 33.602 151.531 33.633C151.423 33.664 151.31 33.6721 151.199 33.6567H149.827V30.9339H151.199L151.117 30.9067ZM150.87 31.9958C151.172 31.9958 151.227 31.8324 151.227 31.7371C151.226 31.6942 151.215 31.6521 151.196 31.6138C151.176 31.5755 151.148 31.542 151.114 31.5159C151.08 31.4897 151.04 31.4716 150.998 31.4627C150.956 31.4539 150.912 31.4546 150.87 31.4648H150.54V31.9958H150.87ZM150.87 33.1121C150.916 33.1219 150.964 33.1222 151.01 33.1129C151.056 33.1036 151.1 33.085 151.138 33.0582C151.177 33.0313 151.21 32.9969 151.234 32.957C151.259 32.9171 151.275 32.8726 151.282 32.8262C151.275 32.7802 151.259 32.736 151.234 32.6966C151.21 32.6572 151.177 32.6235 151.138 32.5977C151.099 32.5719 151.055 32.5547 151.009 32.5472C150.962 32.5396 150.915 32.5419 150.87 32.554H150.513V33.1257H150.87V33.1121Z" fill="white"/>
<path d="M156.209 32.2814C156.204 31.9868 156.287 31.6973 156.448 31.4497C156.609 31.2021 156.841 31.0077 157.114 30.8912C157.386 30.7747 157.688 30.7414 157.98 30.7955C158.272 30.8497 158.541 30.9888 158.753 31.1952C158.965 31.4016 159.11 31.666 159.17 31.9545C159.23 32.2431 159.202 32.5429 159.09 32.8156C158.978 33.0883 158.786 33.3217 158.539 33.486C158.293 33.6503 158.002 33.7381 157.705 33.7381C157.507 33.7565 157.306 33.7317 157.118 33.6653C156.93 33.599 156.759 33.4928 156.617 33.3541C156.474 33.2154 156.364 33.0476 156.294 32.8624C156.223 32.6771 156.195 32.4788 156.209 32.2814ZM158.392 32.2814C158.373 32.1491 158.317 32.0249 158.229 31.9237C158.141 31.8225 158.025 31.7486 157.896 31.7108C157.767 31.673 157.63 31.673 157.501 31.7107C157.371 31.7484 157.256 31.8223 157.168 31.9234C157.08 32.0246 157.024 32.1487 157.005 32.281C156.986 32.4133 157.007 32.5481 157.063 32.6692C157.12 32.7903 157.211 32.8927 157.325 32.9639C157.439 33.0352 157.571 33.0724 157.705 33.071C157.805 33.0698 157.904 33.0478 157.995 33.0063C158.085 32.9649 158.166 32.9051 158.232 32.8306C158.298 32.7562 158.348 32.6689 158.378 32.5742C158.407 32.4796 158.417 32.3799 158.405 32.2814H158.392Z" fill="white"/>
</g>
<defs>
<clipPath id="clip0_11401_9147">
<rect width="164.7" height="33.3" fill="white" transform="translate(0.773926 0.914795)"/>
</clipPath>
</defs>
</svg>
