<svg width="219" height="22" viewBox="0 0 219 22" fill="none" xmlns="http://www.w3.org/2000/svg">
<g clip-path="url(#clip0_11401_9186)">
<mask id="mask0_11401_9186" style="mask-type:luminance" maskUnits="userSpaceOnUse" x="0" y="0" width="219" height="22">
<path d="M218.27 0.0646973H0.27002V21.0647H218.27V0.0646973Z" fill="white"/>
</mask>
<g mask="url(#mask0_11401_9186)">
<path fill-rule="evenodd" clip-rule="evenodd" d="M31.1232 2.73487C30.3001 3.06808 29.6635 3.5323 29.2127 4.12887C28.7625 4.72676 28.5368 5.41671 28.5368 6.19668C28.5368 7.76466 29.4411 8.99743 31.247 9.89496C31.8031 10.1711 32.5169 10.4599 33.3919 10.7555C34.2663 11.0538 34.8783 11.34 35.2252 11.6181C35.5742 11.8956 35.7466 12.2819 35.7466 12.7797C35.7466 13.2184 35.5855 13.559 35.2632 13.8008C34.9409 14.0427 34.5027 14.1643 33.946 14.1643C33.079 14.1643 32.451 13.9849 32.0648 13.6268C31.6779 13.2688 31.4854 12.7118 31.4854 11.9574H28.1152C28.1152 12.8865 28.347 13.7074 28.8091 14.4209C29.2719 15.1337 29.9618 15.6953 30.8788 16.1044C31.7938 16.5149 32.8173 16.7198 33.9466 16.7198C35.5489 16.7198 36.8101 16.3692 37.7292 15.6651C38.6488 14.961 39.1068 13.9923 39.1068 12.7602C39.1068 11.2184 38.3543 10.0071 36.8474 9.13046C36.2288 8.769 35.4377 8.43108 34.4727 8.11869C33.5105 7.80496 32.8366 7.50267 32.453 7.20841C32.0694 6.91485 31.879 6.58699 31.879 6.22489C31.879 5.81242 32.0528 5.47178 32.4004 5.20443C32.7487 4.93636 33.2222 4.80199 33.8228 4.80199C34.4161 4.80199 34.8876 4.96054 35.2352 5.27699C35.5822 5.5934 35.7573 6.03813 35.7573 6.61252H39.1068C39.1068 5.75528 38.8877 4.99012 38.447 4.32301C38.0066 3.65524 37.3888 3.14064 36.5943 2.77921C35.7986 2.41778 34.9009 2.23706 33.8987 2.23706C32.8719 2.23706 31.9462 2.403 31.1232 2.73487Z" fill="white"/>
<path fill-rule="evenodd" clip-rule="evenodd" d="M43.1372 2.59912V16.3577H53.0106V13.8056H46.5922V10.5178H52.0268V8.0614H46.5922V5.15978H53.0296V2.59912H43.1372Z" fill="white"/>
<path fill-rule="evenodd" clip-rule="evenodd" d="M57.0601 2.59912V16.3577H60.4565V11.4915H62.2932L64.7809 16.3577H68.418V16.2154L65.4778 10.6601C66.3223 10.2699 66.9419 9.76106 67.3387 9.13153C67.7351 8.50204 67.9337 7.7086 67.9337 6.75256C67.9337 5.43057 67.4625 4.40831 66.5213 3.68436C65.5793 2.96108 64.2742 2.59912 62.6042 2.59912H57.0601ZM60.4565 5.15058H62.6042C63.2421 5.15058 63.7257 5.31844 64.0547 5.65748C64.3845 5.99518 64.5486 6.46138 64.5486 7.05485C64.5486 7.64828 64.3863 8.11057 64.0595 8.44172C63.7338 8.77417 63.2487 8.94007 62.6042 8.94007H60.4565V5.15058Z" fill="white"/>
<path fill-rule="evenodd" clip-rule="evenodd" d="M72.082 2.59912V16.3577H75.4477V11.6889H77.5983C79.2969 11.6889 80.635 11.2876 81.611 10.485C82.5852 9.68235 83.0736 8.60892 83.0736 7.26731C83.0736 6.35975 82.8487 5.54861 82.3965 4.83385C81.9459 4.11847 81.3102 3.56764 80.4891 3.18076C79.6666 2.79256 78.7213 2.59912 77.654 2.59912H72.082ZM75.4477 5.15978H77.6929C78.3 5.16633 78.7796 5.36174 79.1309 5.74532C79.4823 6.13023 79.6578 6.64303 79.6578 7.28498C79.6578 7.8719 79.4878 8.32564 79.1456 8.64698C78.8027 8.96828 78.3058 9.12893 77.654 9.12893H75.4477V5.15978Z" fill="white"/>
<path fill-rule="evenodd" clip-rule="evenodd" d="M88.644 2.73487C87.8207 3.06808 87.1851 3.5323 86.7348 4.12887C86.2834 4.72676 86.0592 5.41671 86.0592 6.19668C86.0592 7.76466 86.9619 8.99743 88.7686 9.89496C89.3237 10.1711 90.0389 10.4599 90.9134 10.7555C91.7876 11.0538 92.398 11.34 92.7464 11.6181C93.0942 11.8956 93.2686 12.2819 93.2686 12.7797C93.2686 13.2184 93.1073 13.559 92.7849 13.8008C92.4614 14.0427 92.0239 14.1643 91.4685 14.1643C90.6002 14.1643 89.9744 13.9849 89.5867 13.6268C89.2013 13.2688 89.0082 12.7118 89.0082 11.9574H85.6382C85.6382 12.8865 85.8697 13.7074 86.3321 14.4209C86.7956 15.1337 87.4848 15.6953 88.4007 16.1044C89.316 16.5149 90.3386 16.7198 91.4685 16.7198C93.0707 16.7198 94.3311 16.3692 95.2507 15.6651C96.1703 14.961 96.6298 13.9923 96.6298 12.7602C96.6298 11.2184 95.8761 10.0071 94.3706 9.13046C93.7507 8.769 92.959 8.43108 91.9961 8.11869C91.0318 7.80496 90.358 7.50267 89.9758 7.20841C89.593 6.91485 89.401 6.58699 89.401 6.22489C89.401 5.81242 89.5743 5.47178 89.9223 5.20443C90.27 4.93636 90.7441 4.80199 91.3447 4.80199C91.9382 4.80199 92.4083 4.96054 92.7578 5.27699C93.104 5.5934 93.2784 6.03813 93.2784 6.61252H96.6283C96.6283 5.75528 96.4089 4.99012 95.9685 4.32301C95.5284 3.65524 94.9103 3.14064 94.1153 2.77921C93.3202 2.41778 92.4222 2.23706 91.422 2.23706C90.3931 2.23706 89.4669 2.403 88.644 2.73487Z" fill="white"/>
<path fill-rule="evenodd" clip-rule="evenodd" d="M99.5605 2.59912V5.15978H103.694V16.3577H107.075V5.15978H111.285V2.59912H99.5605Z" fill="white"/>
<path fill-rule="evenodd" clip-rule="evenodd" d="M117.181 2.59912L112.018 16.3577H115.644L116.456 13.7873H121.107L121.93 16.3577H125.574L120.372 2.59912H117.181ZM118.777 6.45418L120.295 11.2266H117.269L118.777 6.45418Z" fill="white"/>
<path fill-rule="evenodd" clip-rule="evenodd" d="M126.673 2.59912V5.15978H130.807V16.3577H134.188V5.15978H138.398V2.59912H126.673Z" fill="white"/>
<path fill-rule="evenodd" clip-rule="evenodd" d="M22.1605 1.51294H7.86099L7.86165 1.51637C7.61778 1.52597 7.42187 1.72424 7.42187 1.96985C7.42187 2.1002 7.47734 2.21614 7.56502 2.29916L7.56297 2.30121L10.6587 5.37267C10.8389 5.55175 10.8389 5.84332 10.6594 6.02236L5.56609 11.0806C5.43525 11.2117 5.46676 11.4326 5.6298 11.5204L6.26347 11.8634C6.37991 11.9266 6.56215 11.9135 6.67584 11.8456C6.83342 11.7516 7.01632 11.6967 7.21292 11.6967C7.34786 11.6967 7.47529 11.7242 7.59312 11.7715C7.65958 11.7982 7.73491 11.79 7.78837 11.742L8.99744 10.6477C8.99609 10.6251 8.99059 10.6032 8.99059 10.5798C8.99059 9.99669 9.46261 9.52397 10.0449 9.52397C10.5354 9.52397 10.9437 9.86015 11.0615 10.3143L12.2336 10.8124C12.2699 10.8275 12.3097 10.8213 12.3425 10.7994C12.5117 10.6814 12.7159 10.6107 12.9371 10.6107C13.0419 10.6107 13.1433 10.6278 13.2392 10.6574C13.2749 10.669 13.3132 10.6608 13.3406 10.6347L15.3649 8.66025C15.3944 8.63212 15.4095 8.59027 15.4088 8.54979C15.391 7.51246 16.1562 7.3924 16.4569 7.38211C16.9131 7.36499 17.2968 7.67988 17.4386 8.0922C17.453 8.13131 17.4824 8.16353 17.5221 8.17794L18.8045 8.61702C18.8532 8.63418 18.9045 8.62046 18.9429 8.58683C19.1292 8.41807 19.3752 8.31448 19.6458 8.31448C19.7417 8.31448 19.9088 8.37484 20.0061 8.26918L22.5503 5.6725C22.5949 5.62789 22.6195 5.5675 22.6195 5.5037V1.97259C22.6195 1.71875 22.414 1.51294 22.1605 1.51294Z" fill="white"/>
<path fill-rule="evenodd" clip-rule="evenodd" d="M22.6121 7.5857C22.6121 7.44924 22.4464 7.38102 22.351 7.47929L20.7312 9.13032C20.6957 9.16581 20.6821 9.21697 20.6903 9.26679C20.7319 9.5383 20.6766 9.84194 20.316 10.1762C20.1258 10.3529 19.8838 10.4744 19.624 10.4682C19.2007 10.4566 18.8441 10.1926 18.6887 9.82213C18.6723 9.78324 18.6416 9.75116 18.6007 9.73686L17.2625 9.27769C17.2161 9.26201 17.1663 9.27359 17.1275 9.30499C16.9475 9.45097 16.7191 9.53968 16.4696 9.53968C16.3564 9.53968 16.2494 9.51716 16.1471 9.48374C16.1471 9.48374 14.62 10.9622 14.0774 11.4964C14.0112 11.5626 14.0105 11.5673 14.0256 11.7004C14.0256 12.2803 13.5565 12.7504 12.9763 12.7504C12.4862 12.7504 12.0771 12.4133 11.9619 11.959C11.9497 11.9126 11.9196 11.873 11.8753 11.8539L10.8813 11.4323C10.8309 11.4097 10.7743 11.4207 10.73 11.4541C10.5541 11.5885 10.3359 11.6703 10.0987 11.6703C9.98553 11.6703 9.87646 11.652 9.7742 11.6178C9.71352 11.598 9.64739 11.6083 9.59969 11.6506L8.39024 12.7449C8.34936 12.7818 8.32756 12.8329 8.3214 12.8875C8.26824 13.4169 7.82374 13.8304 7.27969 13.8304C6.85838 13.8304 6.4991 13.5807 6.33276 13.2218C6.28913 13.1277 6.20867 13.0567 6.11869 13.0069L4.75727 12.2714C4.65021 12.2135 4.51864 12.2332 4.43276 12.3185L0.404323 16.3036L0.40296 16.3049L0.397506 16.3104L0.398869 16.3111C0.319787 16.3929 0.27002 16.5035 0.27002 16.6262C0.27002 16.878 0.473179 17.082 0.725423 17.082H13.9396C14.1926 17.082 14.5464 16.9367 14.7264 16.7586L14.9855 16.5014L14.9929 16.4939L18.0942 13.419C18.2735 13.2416 18.566 13.2416 18.7452 13.419L21.8377 16.4871C21.9208 16.5724 22.0354 16.6262 22.1642 16.6262C22.4151 16.6262 22.6196 16.4229 22.6196 16.1719L22.6121 7.5857Z" fill="white"/>
<path fill-rule="evenodd" clip-rule="evenodd" d="M151.936 21.0647C151.744 21.0647 151.588 20.9082 151.588 20.7145V0.414841C151.588 0.221201 151.744 0.0646973 151.936 0.0646973C152.129 0.0646973 152.284 0.221201 152.284 0.414841V20.7145C152.284 20.9082 152.129 21.0647 151.936 21.0647Z" fill="white"/>
<path fill-rule="evenodd" clip-rule="evenodd" d="M167.563 6.11793H169.687L168.623 3.23838L167.563 6.11793ZM169.931 6.78179H167.314L166.727 8.39223H165.877L168.263 2.23706H168.983L171.373 8.39223H170.527L169.931 6.78179Z" fill="white"/>
<path fill-rule="evenodd" clip-rule="evenodd" d="M172.472 8.39224H173.204V1.875H172.472V8.39224Z" fill="white"/>
<path fill-rule="evenodd" clip-rule="evenodd" d="M174.67 8.39224H175.403V1.875H174.67V8.39224Z" fill="white"/>
<path fill-rule="evenodd" clip-rule="evenodd" d="M176.136 6.13454H178.334V5.49585H176.136V6.13454Z" fill="white"/>
<path fill-rule="evenodd" clip-rule="evenodd" d="M179.143 8.39224H180.071V3.61488H179.143V8.39224ZM179.067 2.34722C179.067 2.21454 179.113 2.10295 179.205 2.01177C179.297 1.92059 179.433 1.875 179.614 1.875C179.794 1.875 179.932 1.92059 180.025 2.01177C180.119 2.10295 180.166 2.21454 180.166 2.34722C180.166 2.48059 180.119 2.59082 180.025 2.6786C179.932 2.76637 179.794 2.81129 179.614 2.81129C179.433 2.81129 179.297 2.76637 179.205 2.6786C179.113 2.59082 179.067 2.48059 179.067 2.34722Z" fill="white"/>
<path fill-rule="evenodd" clip-rule="evenodd" d="M182.019 3.77086L182.044 4.35209C182.4 3.90779 182.865 3.6853 183.44 3.6853C184.423 3.6853 184.92 4.23688 184.929 5.33873V8.3922H184.133V5.33413C184.13 5.00106 184.053 4.75489 183.902 4.59562C183.751 4.43634 183.517 4.35669 183.198 4.35669C182.94 4.35669 182.713 4.42447 182.518 4.56071C182.323 4.69765 182.17 4.87734 182.062 5.0998V8.3922H181.265V3.77086H182.019Z" fill="white"/>
<path fill-rule="evenodd" clip-rule="evenodd" d="M186.028 6.13454H188.226V5.49585H186.028V6.13454Z" fill="white"/>
<path fill-rule="evenodd" clip-rule="evenodd" d="M192.886 4.92887C192.886 4.17696 192.734 3.60031 192.43 3.19752C192.126 2.79472 191.702 2.59399 191.155 2.59399C190.624 2.59399 190.206 2.79472 189.9 3.19752C189.595 3.60031 189.439 4.15817 189.429 4.87181V5.33837C189.429 6.06743 189.583 6.64073 189.891 7.05697C190.199 7.47385 190.624 7.68266 191.164 7.68266C191.708 7.68266 192.128 7.4853 192.426 7.09187C192.724 6.69848 192.877 6.13456 192.886 5.39945V4.92887ZM193.722 5.33837C193.722 5.96001 193.617 6.50246 193.407 6.96569C193.197 7.42888 192.899 7.78266 192.513 8.02637C192.128 8.27073 191.678 8.39224 191.164 8.39224C190.662 8.39224 190.216 8.27004 189.828 8.02369C189.44 7.77864 189.138 7.42888 188.924 6.97442C188.709 6.51991 188.598 5.99361 188.593 5.39478V4.9376C188.593 4.32737 188.699 3.78897 188.912 3.32104C189.126 2.8538 189.427 2.49598 189.817 2.24759C190.207 1.9992 190.653 1.875 191.155 1.875C191.666 1.875 192.117 1.99785 192.506 2.24289C192.897 2.48859 193.197 2.84507 193.407 3.3103C193.617 3.77688 193.722 4.31929 193.722 4.9376V5.33837Z" fill="white"/>
<path fill-rule="evenodd" clip-rule="evenodd" d="M195.575 3.77086L195.601 4.35209C195.956 3.90779 196.421 3.6853 196.996 3.6853C197.98 3.6853 198.476 4.23688 198.485 5.33873V8.3922H197.689V5.33413C197.686 5.00106 197.609 4.75489 197.458 4.59562C197.308 4.43634 197.073 4.35669 196.754 4.35669C196.496 4.35669 196.27 4.42447 196.074 4.56071C195.879 4.69765 195.727 4.87734 195.618 5.0998V8.3922H194.821V3.77086H195.575Z" fill="white"/>
<path fill-rule="evenodd" clip-rule="evenodd" d="M201.661 4.32273C201.333 4.32273 201.057 4.43714 200.835 4.6647C200.613 4.89291 200.476 5.21226 200.423 5.62339H202.802V5.56459C202.779 5.17022 202.668 4.86445 202.469 4.6479C202.269 4.43131 202 4.32273 201.661 4.32273ZM201.762 8.3922C201.117 8.3922 200.594 8.18984 200.19 7.78581C199.786 7.38177 199.584 6.84135 199.584 6.16515V6.02228C199.584 5.57168 199.674 5.17022 199.854 4.81597C200.034 4.46169 200.286 4.18503 200.61 3.98589C200.933 3.78487 201.283 3.6853 201.661 3.6853C202.279 3.6853 202.758 3.87923 203.101 4.26841C203.444 4.65757 203.615 5.21418 203.615 5.93759V6.26081H200.396C200.408 6.70818 200.545 7.07018 200.807 7.34557C201.069 7.62096 201.402 7.75804 201.806 7.75804C202.092 7.75804 202.335 7.70307 202.534 7.59058C202.734 7.47939 202.908 7.33007 203.057 7.14581L203.553 7.51494C203.155 8.10001 202.558 8.3922 201.762 8.3922Z" fill="white"/>
<path fill-rule="evenodd" clip-rule="evenodd" d="M168.575 14.5294C167.833 14.3233 167.294 14.0689 166.957 13.7689C166.618 13.4688 166.45 13.0976 166.45 12.6559C166.45 12.1565 166.656 11.7437 167.069 11.4168C167.482 11.0906 168.018 10.9268 168.679 10.9268C169.129 10.9268 169.53 11.012 169.883 11.1798C170.236 11.3476 170.509 11.5805 170.702 11.8773C170.896 12.1719 170.992 12.4961 170.992 12.8472H170.124C170.124 12.4633 169.998 12.1605 169.745 11.9417C169.493 11.7208 169.138 11.6108 168.679 11.6108C168.252 11.6108 167.92 11.7014 167.682 11.884C167.443 12.0659 167.323 12.3176 167.323 12.6405C167.323 12.8996 167.436 13.1184 167.663 13.297C167.89 13.4769 168.276 13.6406 168.821 13.7883C169.365 13.9367 169.791 14.1005 170.099 14.279C170.407 14.4576 170.635 14.6657 170.783 14.9046C170.931 15.1416 171.006 15.4222 171.006 15.7451C171.006 16.2585 170.799 16.67 170.384 16.9795C169.971 17.2889 169.417 17.444 168.724 17.444C168.273 17.444 167.853 17.3601 167.462 17.1936C167.072 17.0258 166.771 16.7976 166.56 16.5062C166.349 16.2169 166.243 15.886 166.243 15.5182H167.112C167.112 15.9021 167.258 16.2035 167.55 16.4264C167.843 16.6479 168.234 16.7593 168.724 16.7593C169.179 16.7593 169.529 16.6694 169.773 16.4895C170.015 16.3096 170.137 16.0646 170.137 15.7538C170.137 15.443 170.024 15.202 169.8 15.0328C169.574 14.8623 169.166 14.6945 168.575 14.5294Z" fill="white"/>
<path fill-rule="evenodd" clip-rule="evenodd" d="M175.691 14.5987H172.942V16.7814H176.136V17.444H172.105V11.2888H176.092V11.9521H172.942V13.9354H175.691V14.5987Z" fill="white"/>
<path fill-rule="evenodd" clip-rule="evenodd" d="M181.161 13.9803C181.161 13.2292 181.009 12.6512 180.705 12.2498C180.402 11.8471 179.977 11.645 179.431 11.645C178.899 11.645 178.481 11.8471 178.176 12.2498C177.871 12.6512 177.714 13.2097 177.705 13.9239V14.3905C177.705 15.1194 177.859 15.6927 178.166 16.1082C178.475 16.525 178.899 16.7338 179.439 16.7338C179.983 16.7338 180.404 16.5371 180.701 16.1438C180.999 15.7504 181.152 15.1866 181.161 14.4508V13.9803ZM181.998 14.3905C181.998 15.012 181.893 15.5537 181.682 16.0176C181.472 16.4808 181.175 16.8345 180.789 17.0782C180.404 17.3225 179.954 17.444 179.439 17.444C178.938 17.444 178.492 17.3211 178.104 17.0755C177.715 16.8305 177.413 16.4808 177.199 16.0256C176.984 15.5718 176.874 15.0449 176.868 14.4468V13.9897C176.868 13.3795 176.975 12.8412 177.188 12.3726C177.402 11.9061 177.702 11.5484 178.092 11.2993C178.482 11.0516 178.928 10.9268 179.431 10.9268C179.942 10.9268 180.392 11.0503 180.782 11.2953C181.172 11.5403 181.472 11.8961 181.682 12.3626C181.893 12.8278 181.998 13.3708 181.998 13.9897V14.3905Z" fill="white"/>
<path fill-rule="evenodd" clip-rule="evenodd" d="M188.51 15.1071C188.51 14.5837 188.395 14.1689 188.166 13.8665C187.937 13.5628 187.622 13.4106 187.222 13.4106C186.728 13.4106 186.358 13.625 186.111 14.0511V16.2703C186.355 16.6937 186.728 16.9061 187.231 16.9061C187.622 16.9061 187.933 16.7546 188.164 16.4522C188.395 16.1512 188.51 15.7026 188.51 15.1071ZM189.326 15.1977C189.326 15.9044 189.16 16.474 188.828 16.9061C188.495 17.3375 188.046 17.5545 187.478 17.5545C186.899 17.5545 186.443 17.3752 186.111 17.0173V19.2543H185.295V12.8224H186.04L186.08 13.3378C186.413 12.9375 186.874 12.7371 187.465 12.7371C188.039 12.7371 188.492 12.9475 188.826 13.3676C189.159 13.7891 189.326 14.3746 189.326 15.1236V15.1977Z" fill="white"/>
<path fill-rule="evenodd" clip-rule="evenodd" d="M190.425 17.444H191.158V10.9268H190.425V17.444Z" fill="white"/>
<path fill-rule="evenodd" clip-rule="evenodd" d="M194.026 16.7684C194.288 16.7684 194.535 16.705 194.77 16.579C195.005 16.4542 195.175 16.29 195.28 16.089V15.1574H194.626C193.604 15.1574 193.092 15.4348 193.092 15.992C193.092 16.2357 193.179 16.4251 193.353 16.5628C193.528 16.7005 193.752 16.7684 194.026 16.7684ZM195.411 17.3593C195.363 17.2694 195.324 17.1104 195.293 16.8809C194.906 17.2558 194.443 17.444 193.904 17.444C193.423 17.444 193.027 17.3179 192.719 17.0638C192.411 16.8111 192.256 16.4891 192.256 16.1006C192.256 15.628 192.45 15.2609 192.836 14.9997C193.223 14.7379 193.767 14.6079 194.468 14.6079H195.28V14.2504C195.28 13.9796 195.193 13.7636 195.019 13.6033C194.844 13.4423 194.587 13.3616 194.247 13.3616C193.949 13.3616 193.699 13.4314 193.498 13.5716C193.296 13.7113 193.195 13.8807 193.195 14.0791H192.356C192.356 13.8528 192.443 13.6331 192.616 13.4223C192.788 13.2116 193.024 13.0448 193.319 12.9213C193.615 12.7985 193.941 12.7371 194.297 12.7371C194.859 12.7371 195.3 12.867 195.619 13.1282C195.937 13.3906 196.103 13.7507 196.116 14.2091V16.2984C196.116 16.7154 196.173 17.0464 196.287 17.2927V17.3593H195.411Z" fill="white"/>
<path fill-rule="evenodd" clip-rule="evenodd" d="M198.683 11.6509V12.7628H199.562V13.3701H198.683V16.2241C198.683 16.4086 198.722 16.5461 198.801 16.6384C198.879 16.7306 199.012 16.7764 199.201 16.7764C199.294 16.7764 199.422 16.7601 199.584 16.7254V17.3595C199.372 17.4158 199.166 17.444 198.966 17.444C198.606 17.444 198.334 17.3373 198.152 17.1253C197.969 16.9119 197.878 16.6102 197.878 16.2202V13.3701H197.02V12.7628H197.878V11.6509H198.683Z" fill="white"/>
<path fill-rule="evenodd" clip-rule="evenodd" d="M200.716 17.444V13.2949H199.951V12.6638H200.716V12.1729C200.716 11.6609 200.855 11.2646 201.134 10.9855C201.411 10.705 201.804 10.5647 202.313 10.5647C202.503 10.5647 202.693 10.5906 202.882 10.6396L202.836 11.2993C202.696 11.2728 202.546 11.2592 202.389 11.2592C202.119 11.2592 201.912 11.3361 201.766 11.492C201.619 11.6459 201.546 11.8692 201.546 12.1579V12.6638H202.581V13.2949H201.546V17.444H200.716Z" fill="white"/>
<path fill-rule="evenodd" clip-rule="evenodd" d="M204.078 15.1409C204.078 15.6432 204.203 16.0471 204.451 16.3529C204.699 16.6573 205.032 16.8099 205.449 16.8099C205.868 16.8099 206.201 16.656 206.448 16.3464C206.695 16.0375 206.818 15.6044 206.818 15.0485C206.818 14.5502 206.694 14.1475 206.442 13.8378C206.19 13.5289 205.856 13.375 205.439 13.375C205.032 13.375 204.703 13.5276 204.453 13.832C204.204 14.1358 204.078 14.5727 204.078 15.1409ZM203.248 15.0485C203.248 14.6031 203.341 14.2043 203.527 13.8482C203.713 13.4933 203.972 13.2193 204.303 13.0266C204.636 12.8334 205.014 12.7371 205.439 12.7371C206.097 12.7371 206.629 12.9504 207.035 13.3782C207.442 13.8068 207.645 14.3756 207.645 15.0853V15.1409C207.645 15.583 207.555 15.9793 207.374 16.3303C207.194 16.6812 206.937 16.954 206.602 17.1492C206.268 17.3451 205.882 17.444 205.449 17.444C204.793 17.444 204.263 17.2287 203.857 16.8008C203.451 16.3729 203.248 15.8073 203.248 15.1028V15.0485Z" fill="white"/>
<path fill-rule="evenodd" clip-rule="evenodd" d="M210.942 13.5316C210.824 13.5112 210.697 13.502 210.56 13.502C210.05 13.502 209.704 13.7219 209.522 14.1643V17.444H208.744V12.822H209.5L209.514 13.3565C209.769 12.9425 210.13 12.7371 210.598 12.7371C210.749 12.7371 210.864 12.7561 210.942 12.7963V13.5316Z" fill="white"/>
<path fill-rule="evenodd" clip-rule="evenodd" d="M212.436 12.822L212.458 13.3348C212.803 12.9365 213.268 12.7371 213.853 12.7371C214.511 12.7371 214.959 12.9853 215.197 13.4803C215.353 13.2578 215.557 13.0794 215.807 12.9418C216.058 12.8055 216.355 12.7371 216.697 12.7371C217.728 12.7371 218.253 13.2736 218.27 14.3466V17.444H217.466V14.3947C217.466 14.0642 217.389 13.8173 217.236 13.6541C217.082 13.4895 216.824 13.4072 216.462 13.4072C216.163 13.4072 215.915 13.4954 215.718 13.6705C215.521 13.8456 215.407 14.0807 215.375 14.3776V17.444H214.567V14.4164C214.567 13.7436 214.232 13.4072 213.563 13.4072C213.035 13.4072 212.674 13.6284 212.479 14.0695V17.444H211.675V12.822H212.436Z" fill="white"/>
</g>
</g>
<defs>
<clipPath id="clip0_11401_9186">
<rect width="218" height="21" fill="white" transform="translate(0.27002 0.0646973)"/>
</clipPath>
</defs>
</svg>
