<svg width="155" height="26" viewBox="0 0 155 26" fill="none" xmlns="http://www.w3.org/2000/svg">
<g clip-path="url(#clip0_11401_9223)">
<path fill-rule="evenodd" clip-rule="evenodd" d="M19.5447 0.0646973H13.326V6.3147H19.5447V0.0646973ZM13.2947 15.6897C13.2947 17.4444 11.8869 18.8147 10.2158 18.8147C8.54394 18.8147 7.1377 17.4444 7.1377 15.6897C7.1377 13.935 8.54394 12.5647 10.2158 12.5647C11.8877 12.5647 13.2947 13.935 13.2947 15.6897ZM19.5447 15.6897C19.5447 20.867 15.3682 25.0647 10.2158 25.0647C5.06348 25.0647 0.887695 20.867 0.887695 15.6897C0.887695 10.5124 5.0627 6.3147 10.215 6.3147C15.3674 6.3147 19.5432 10.5124 19.5432 15.6897H19.5447ZM82.6416 6.16938H79.7807V9.07329H82.6416V6.16938ZM33.4885 11.0288C32.7097 10.4289 31.7535 10.1051 30.7705 10.1084C27.8525 10.1084 25.7643 12.3803 25.7643 15.485C25.7643 18.6194 27.9955 20.9194 30.9994 20.9194C34.0604 20.9194 36.3783 18.8202 36.3783 15.1116V6.74438H33.4885V11.0288ZM31.1135 18.0155C29.7408 18.0155 28.7393 16.9514 28.7393 15.485C28.7393 14.0186 29.7408 12.9553 31.1143 12.9553C32.4869 12.9553 33.4885 14.0186 33.4885 15.485C33.4885 16.9514 32.4869 18.0155 31.1135 18.0155ZM42.5018 10.0514C39.383 10.0514 37.1229 12.3514 37.1229 15.485C37.1229 18.7053 39.326 20.9194 42.5018 20.9194C44.8768 20.9194 46.7932 19.5678 47.3369 17.6991H44.2182C43.9033 18.0725 43.3596 18.2741 42.4729 18.2741C41.3002 18.2741 40.4127 17.5842 40.0979 16.5202H47.5658C47.6518 16.003 47.6799 15.7725 47.6799 15.485C47.7088 12.3225 45.5627 10.0514 42.5018 10.0514ZM42.3588 12.6959C43.6463 12.6959 44.533 13.5303 44.533 14.4788H40.0408C40.3275 13.2999 41.2143 12.6959 42.3588 12.6959ZM48.4814 15.8592C48.4814 12.1499 50.7986 10.0514 53.8596 10.0514C56.8924 10.0514 59.1236 12.3514 59.0955 15.485C59.0955 18.5905 57.0064 20.8616 54.0885 20.8616C53.1055 20.8649 52.1493 20.5411 51.3705 19.9413V24.2256H48.4814V15.8592ZM51.3705 15.485C51.3705 16.9514 52.3721 18.0155 53.7455 18.0155C55.1182 18.0155 56.1205 16.9514 56.1205 15.485C56.1205 14.0186 55.1189 12.9553 53.7455 12.9553C52.3721 12.9553 51.3705 14.0186 51.3705 15.485ZM59.8111 15.485C59.8111 12.4084 62.1564 10.0514 65.2174 10.0514C68.2799 10.0514 70.6252 12.4084 70.6252 15.485C70.6252 18.5616 68.2791 20.9194 65.2182 20.9194C62.1564 20.9194 59.8111 18.5616 59.8111 15.485ZM62.815 15.485C62.815 16.9514 63.8158 18.0155 65.2182 18.0155C66.5916 18.0155 67.6213 16.9514 67.6213 15.485C67.6213 14.0186 66.6197 12.9553 65.2182 12.9553C63.8447 12.9553 62.815 14.0186 62.815 15.485ZM75.6244 14.3772L75.7182 14.4209C77.0908 15.0538 78.808 15.8874 78.808 17.785C78.808 19.8553 76.8049 20.9194 74.9455 20.9194C72.5424 20.9194 71.1119 19.4241 71.1119 17.0952H73.8869C73.8869 17.785 74.2307 18.3608 74.9166 18.3608C75.3744 18.3608 75.8322 18.1881 75.8322 17.6702C75.8322 17.1756 75.2572 16.917 74.4822 16.5686L74.3729 16.5202L74.3377 16.5045C73.0268 15.9319 71.3689 15.2077 71.3689 13.185C71.3689 11.0858 73.0861 10.0514 74.9455 10.0514C77.2627 10.0514 78.665 11.4889 78.665 13.817H75.8322C75.8322 13.2139 75.6033 12.6389 74.8885 12.6389C74.5166 12.6389 74.1447 12.8397 74.1447 13.2139C74.1447 13.6842 74.8088 13.9944 75.6244 14.3772ZM123.297 8.12485H126.158V10.2522H128.504V13.1561H126.158V17.2389C126.158 17.6131 126.358 17.8139 126.73 17.8139H128.504V20.7178H126.387C124.413 20.7178 123.297 19.5967 123.297 17.6131V8.12485ZM106.731 10.0514C105.955 10.0444 105.202 10.3201 104.614 10.8272V6.77329H101.725V20.7467H104.614V14.278C104.614 13.3866 104.986 12.8116 105.759 12.8116C106.446 12.8116 106.788 13.1561 106.989 13.9616L108.563 20.7178H111.796L110.107 13.4147C109.535 10.942 108.477 10.0514 106.731 10.0514ZM79.7807 10.2522H82.6416V20.7178H79.7807V10.2522ZM134.226 10.0514C131.165 10.0514 128.819 12.4084 128.819 15.485C128.819 18.5616 131.165 20.9194 134.226 20.9194C137.288 20.9194 139.633 18.5616 139.633 15.485C139.633 12.4084 137.288 10.0514 134.226 10.0514ZM134.226 18.0155C132.824 18.0155 131.823 16.9514 131.823 15.485C131.823 14.0186 132.853 12.9553 134.226 12.9553C135.628 12.9553 136.629 14.0186 136.629 15.485C136.629 16.9514 135.628 18.0155 134.226 18.0155ZM144.632 14.3772L144.726 14.4209C146.099 15.0538 147.787 15.8874 147.816 17.785C147.816 19.8553 145.813 20.9194 143.953 20.9194C141.55 20.9194 140.12 19.4241 140.12 17.0952H142.895C142.895 17.785 143.238 18.3608 143.925 18.3608C144.383 18.3608 144.841 18.1881 144.841 17.6702C144.841 17.1756 144.266 16.917 143.49 16.5686L143.381 16.5202L143.346 16.5045C142.035 15.9319 140.378 15.2077 140.378 13.185C140.378 11.0858 142.094 10.0514 143.953 10.0514C146.271 10.0514 147.673 11.4889 147.673 13.817H144.841C144.841 13.2139 144.612 12.6389 143.896 12.6389C143.524 12.6389 143.153 12.8397 143.153 13.2139C143.153 13.6842 143.817 13.9944 144.632 14.3772ZM117.031 10.0514C113.97 10.0514 111.624 12.4084 111.624 15.485C111.624 18.5616 113.97 20.9194 117.031 20.9194C120.092 20.9194 122.438 18.5616 122.438 15.485C122.438 12.4084 120.092 10.0514 117.031 10.0514ZM117.031 18.0155C115.629 18.0155 114.628 16.9514 114.628 15.485C114.628 14.0186 115.658 12.9553 117.031 12.9553C118.433 12.9553 119.435 14.0186 119.435 15.485C119.435 16.9514 118.433 18.0155 117.031 18.0155ZM90.2236 15.8592C90.2236 12.1499 92.5408 10.0514 95.6025 10.0514C98.6346 10.0514 100.838 12.3514 100.838 15.485C100.838 18.5905 98.7494 20.8616 95.8314 20.8616C94.8484 20.8649 93.8922 20.5412 93.1135 19.9413V24.2256H90.2236V15.8592ZM93.1135 15.485C93.1135 16.9514 94.1143 18.0155 95.4877 18.0155C96.8611 18.0155 97.8627 16.9514 97.8627 15.485C97.8627 14.0186 96.8611 12.9553 95.4877 12.9553C94.1143 12.9553 93.1135 14.0186 93.1135 15.485ZM84.1299 8.12485H86.9908V10.2522H89.3369V13.1561H86.9908V17.2389C86.9908 17.6131 87.1908 17.8139 87.5627 17.8139H89.3369V20.7178H87.2197C85.2455 20.7178 84.1299 19.5967 84.1299 17.6131V8.12485Z" fill="white"/>
</g>
<defs>
<clipPath id="clip0_11401_9223">
<rect width="154" height="25" fill="white" transform="translate(0.0664062 0.0646973)"/>
</clipPath>
</defs>
</svg>
