<svg width="90" height="25" viewBox="0 0 90 25" fill="none" xmlns="http://www.w3.org/2000/svg">
<g clip-path="url(#clip0_11401_9227)">
<path d="M0.896973 24.4298V20.5265H2.04876C2.36968 20.5203 2.68645 20.5999 2.96641 20.757C3.23429 20.9089 3.45163 21.1363 3.5914 21.4109C3.74213 21.7117 3.81762 22.0447 3.81137 22.3813V22.5806C3.81838 22.9193 3.7422 23.2544 3.58951 23.5567C3.44899 23.8305 3.23008 24.0562 2.96075 24.2049C2.6736 24.3609 2.3509 24.4397 2.02421 24.4335L0.896973 24.4298ZM1.57483 21.0735V23.8874H2.0176C2.37258 23.8874 2.64511 23.7762 2.83518 23.5539C3.02526 23.3315 3.12219 23.0121 3.12596 22.5957V22.3784C3.12596 21.9551 3.03407 21.6317 2.85029 21.408C2.66651 21.1844 2.39933 21.0729 2.04876 21.0735H1.57483Z" fill="white"/>
<path d="M6.09153 24.4297H5.4165V20.5264H6.09153V24.4297Z" fill="white"/>
<path d="M10.823 23.9223C10.6713 24.1147 10.4679 24.2599 10.2367 24.3409C9.96439 24.4391 9.67652 24.4871 9.38707 24.4826C9.08309 24.4887 8.78317 24.412 8.51945 24.2606C8.26466 24.1105 8.06075 23.8873 7.93412 23.6199C7.79144 23.3178 7.71852 22.9875 7.72075 22.6533V22.3481C7.72075 21.7585 7.86174 21.298 8.1437 20.9667C8.42567 20.6354 8.81967 20.4694 9.3257 20.4688C9.75935 20.4688 10.1055 20.5765 10.3642 20.7919C10.6229 21.0073 10.7764 21.3169 10.8249 21.7207H10.1641C10.0892 21.2514 9.81694 21.0165 9.34742 21.0158C9.21175 21.008 9.0763 21.0347 8.95377 21.0935C8.83124 21.1524 8.72566 21.2414 8.6469 21.3522C8.48641 21.5683 8.40616 21.8876 8.40616 22.3103V22.6099C8.40616 23.0319 8.4949 23.3591 8.67239 23.5916C8.75812 23.7056 8.87032 23.7971 8.99928 23.858C9.12825 23.9189 9.27009 23.9475 9.41256 23.9412C9.75998 23.9412 10.0067 23.8628 10.1527 23.7059V22.9415H9.34458V22.4275H10.823V23.9223Z" fill="white"/>
<path d="M13.2014 24.4297H12.5264V20.5264H13.2014V24.4297Z" fill="white"/>
<path d="M17.7529 21.0735H16.535V24.4297H15.8647V21.0735H14.6572V20.5264H17.7529V21.0735Z" fill="white"/>
<path d="M20.9295 23.5253H19.419L19.1027 24.4343H18.3984L19.8712 20.531H20.4792L21.9558 24.4343H21.2458L20.9295 23.5253ZM19.6078 22.9783H20.7407L20.1743 21.3597L19.6078 22.9783Z" fill="white"/>
<path d="M24.0309 23.8873H25.801V24.4297H23.353V20.5264H24.0309V23.8873Z" fill="white"/>
<path d="M32.4965 23.9222C32.3447 24.1146 32.1414 24.2598 31.9102 24.3408C31.6378 24.4389 31.3499 24.4869 31.0605 24.4825C30.7562 24.4885 30.456 24.4118 30.1919 24.2604C29.9392 24.1104 29.7365 23.8888 29.6094 23.6236C29.4675 23.3213 29.3949 22.991 29.397 22.657V22.3518C29.397 21.7622 29.538 21.3017 29.82 20.9704C30.1019 20.639 30.4956 20.473 31.001 20.4724C31.4353 20.4724 31.7799 20.5801 32.0348 20.7956C32.2897 21.011 32.4433 21.3206 32.4955 21.7244H31.8346C31.7591 21.2551 31.4866 21.0201 31.0171 21.0195C30.8836 21.0121 30.7503 21.0382 30.6295 21.0955C30.5086 21.1528 30.404 21.2393 30.3251 21.3474C30.1677 21.5666 30.0859 21.8875 30.0796 22.3102V22.6097C30.0796 23.0318 30.1686 23.359 30.3468 23.5915C30.4324 23.7056 30.5446 23.7971 30.6736 23.858C30.8026 23.9189 30.9445 23.9474 31.0869 23.9411C31.4337 23.9411 31.6801 23.8626 31.8262 23.7058V22.9414H31.0227V22.4274H32.5012L32.4965 23.9222Z" fill="white"/>
<path d="M35.6026 22.9283H34.8473V24.4297H34.1694V20.5264H35.5412C35.9912 20.5264 36.3374 20.6275 36.5797 20.8297C36.822 21.0319 36.9441 21.3242 36.946 21.7065C36.9545 21.94 36.8884 22.17 36.7572 22.3632C36.6233 22.5452 36.4411 22.686 36.2313 22.7695L37.1074 24.3947V24.4297H36.3814L35.6026 22.9283ZM34.8473 22.3812H35.544C35.7378 22.3928 35.9289 22.3311 36.0793 22.2083C36.1441 22.1484 36.1949 22.0751 36.2284 21.9935C36.2618 21.9119 36.277 21.8239 36.2729 21.7358C36.2784 21.6471 36.2653 21.5581 36.2346 21.4747C36.2039 21.3912 36.1562 21.3151 36.0944 21.2511C35.9464 21.1262 35.7562 21.0629 35.5629 21.0744H34.8473V22.3812Z" fill="white"/>
<path d="M41.604 22.5806C41.6115 22.9265 41.5438 23.2698 41.4058 23.5869C41.2865 23.8586 41.0893 24.0888 40.8393 24.2483C40.583 24.3999 40.2907 24.4798 39.993 24.4798C39.6952 24.4798 39.4029 24.3999 39.1466 24.2483C38.8952 24.0885 38.696 23.8586 38.5735 23.5869C38.4335 23.2762 38.3635 22.9385 38.3687 22.5976V22.3775C38.3616 22.0307 38.4306 21.6866 38.5707 21.3693C38.6898 21.0957 38.8868 20.8634 39.1371 20.7013C39.3933 20.55 39.6852 20.4702 39.9826 20.4702C40.2799 20.4702 40.5719 20.55 40.828 20.7013C41.0782 20.8606 41.2754 21.0908 41.3945 21.3627C41.5345 21.6774 41.6041 22.0189 41.5984 22.3633L41.604 22.5806ZM40.9262 22.3775C40.9262 21.9447 40.8447 21.6131 40.6817 21.3825C40.6011 21.2753 40.4967 21.1883 40.3768 21.1284C40.2568 21.0685 40.1246 21.0373 39.9906 21.0373C39.8566 21.0373 39.7243 21.0685 39.6044 21.1284C39.4845 21.1883 39.3801 21.2753 39.2995 21.3825C39.1343 21.6131 39.0503 21.9372 39.0465 22.3576V22.5806C39.0465 23.0096 39.1299 23.3413 39.2967 23.5756C39.3736 23.6879 39.4776 23.7789 39.5991 23.8402C39.7206 23.9015 39.8556 23.9311 39.9915 23.9261C40.1265 23.9325 40.2608 23.9043 40.3819 23.8443C40.503 23.7843 40.6068 23.6944 40.6836 23.5832C40.8459 23.3545 40.9268 23.0203 40.9262 22.5806V22.3775Z" fill="white"/>
<path d="M46.1498 23.464L46.7493 20.5264H47.4224L46.5218 24.4297H45.8741L45.1311 21.5799L44.3759 24.4297H43.7254L42.8257 20.5264H43.4969L44.103 23.4555L44.847 20.5264H45.4134L46.1498 23.464Z" fill="white"/>
<path d="M51.8032 21.0735H50.5873V24.4297H49.9151V21.0735H48.7095V20.5264H51.8032V21.0735Z" fill="white"/>
<path d="M56.33 24.4297H55.655V22.6977H53.9113V24.4297H53.2334V20.5264H53.9113V22.1506H55.655V20.5264H56.33V24.4297Z" fill="white"/>
<path d="M60.9918 22.9821V24.4297H60.314V20.5264H61.8056C62.2412 20.5264 62.5873 20.6401 62.8441 20.8675C62.9708 20.9799 63.071 21.1191 63.1375 21.275C63.2039 21.4308 63.2349 21.5995 63.2284 21.7689C63.2284 22.1519 63.1025 22.4498 62.8507 22.6627C62.599 22.8757 62.2475 22.9821 61.7962 22.9821H60.9918ZM60.9918 22.435H61.8056C62.0041 22.4488 62.2007 22.3882 62.357 22.265C62.4224 22.2016 62.4732 22.1248 62.5058 22.0397C62.5384 21.9547 62.5521 21.8635 62.5458 21.7727C62.5506 21.68 62.5363 21.5872 62.5038 21.5003C62.4714 21.4133 62.4214 21.334 62.357 21.2672C62.2117 21.137 62.0212 21.0692 61.8264 21.0782H60.9918V22.435Z" fill="white"/>
<path d="M66.6263 23.5253H65.1158L64.8005 24.4343H64.0952L65.5689 20.531H66.1769L67.6525 24.4343H66.9454L66.6263 23.5253ZM65.3046 22.9783H66.4375L65.871 21.3597L65.3046 22.9783Z" fill="white"/>
<path d="M70.482 22.9283H69.7267V24.4297H69.0488V20.5264H70.4206C70.87 20.5264 71.2183 20.6275 71.4591 20.8297C71.6998 21.0319 71.8263 21.3238 71.8263 21.7065C71.8345 21.9399 71.7683 22.1699 71.6375 22.3632C71.5036 22.5452 71.3215 22.686 71.1117 22.7695L71.9878 24.3947V24.4297H71.2608L70.482 22.9283ZM69.7267 22.3812H70.4234C70.6172 22.3928 70.8083 22.3311 70.9587 22.2083C71.0226 22.148 71.0726 22.0745 71.1052 21.9929C71.1378 21.9113 71.1522 21.8236 71.1475 21.7358C71.153 21.6471 71.14 21.5581 71.1093 21.4747C71.0786 21.3912 71.0308 21.3151 70.9691 21.2511C70.8211 21.1262 70.6308 21.0629 70.4376 21.0744H69.722L69.7267 22.3812Z" fill="white"/>
<path d="M76.2217 21.0735H75.0057V24.4297H74.3335V21.0735H73.1279V20.5264H76.2217V21.0735Z" fill="white"/>
<path d="M80.7461 24.4297H80.0692L78.3302 21.6602V24.4297H77.6523V20.5264H78.3302L80.0739 23.3062V20.5264H80.7461V24.4297Z" fill="white"/>
<path d="M84.7604 22.6873H83.1554V23.8873H85.0276V24.4297H82.4785V20.5264H85.0096V21.0735H83.1592V22.1506H84.7641L84.7604 22.6873Z" fill="white"/>
<path d="M87.9297 22.9283H87.1744V24.4297H86.4966V20.5264H87.8683C88.3177 20.5264 88.6639 20.6275 88.9068 20.8297C89.1498 21.0319 89.2722 21.3242 89.2741 21.7065C89.2822 21.9399 89.2161 22.1699 89.0853 22.3632C88.9514 22.5452 88.7692 22.686 88.5594 22.7695L89.4355 24.3947V24.4297H88.7086L87.9297 22.9283ZM87.1744 22.3812H87.8712C88.065 22.3928 88.2561 22.3311 88.4065 22.2083C88.4704 22.148 88.5204 22.0745 88.553 21.9929C88.5856 21.9113 88.6001 21.8236 88.5953 21.7358C88.6007 21.6471 88.5878 21.5583 88.5572 21.4749C88.5267 21.3914 88.4792 21.3152 88.4178 21.2511C88.2696 21.126 88.0789 21.0627 87.8853 21.0744H87.1707L87.1744 22.3812Z" fill="white"/>
<path d="M2.9824 3.16699L9.11897 11.3138V3.16699H11.3281V15.0725H9.169L3.05038 6.94652V15.0725H0.824219V3.16699H2.9824Z" fill="white"/>
<path d="M24.2959 3.16699V5.15691H17.8554V8.09928H23.6332V10.0892H17.8554V13.0826H24.4998V15.0725H15.5811V3.16699H24.2959Z" fill="white"/>
<path d="M36.6267 3.16699V5.19471H32.9221V15.0725H30.6279V5.19471H26.9233V3.16699H36.6267Z" fill="white"/>
<path d="M49.037 7.26589C49.037 9.98621 47.3207 11.5689 44.3298 11.5689H41.7326V15.0725H39.4526V3.16699H44.3298C47.3207 3.16699 49.037 4.64668 49.037 7.26589ZM46.8788 7.33392C46.8788 5.87124 45.9102 5.16069 44.2108 5.16069H41.7326V9.56195H44.2137C45.9102 9.56195 46.8788 8.82967 46.8788 7.33392Z" fill="white"/>
<path d="M60.9569 3.16699V5.15691H54.5164V8.09928H60.2932V10.0892H54.5164V13.0826H61.1608V15.0725H52.2383V3.16699H60.9569Z" fill="white"/>
<path d="M86.6462 15.0725L82.9426 9.97014L81.0393 12.0791V15.0725H78.7612V3.16699H81.0393V8.98369L86.4206 3.16699H89.0716L84.539 8.20038L89.3992 15.0725H86.6462Z" fill="white"/>
<path d="M69.9605 3.21705L73.3875 10.0741L75.8913 15.0819H64.0269L66.5306 10.0741L69.9605 3.21705ZM69.9605 0.646973L68.9296 2.70304L65.5035 9.56004L62.9997 14.5679L62.1689 16.2319H77.7464L76.9156 14.5679L74.4119 9.56004L70.9848 2.70304L69.9605 0.646973Z" fill="white"/>
<path d="M71.6218 9.26229L69.9574 5.92969L68.292 9.26229H71.6218Z" fill="white"/>
<path d="M72.2451 10.5085H67.6691L65.998 13.8534H73.9161L72.2451 10.5085Z" fill="white"/>
</g>
<defs>
<clipPath id="clip0_11401_9227">
<rect width="88.7442" height="24" fill="white" transform="translate(0.759277 0.564697)"/>
</clipPath>
</defs>
</svg>
