<svg width="129" height="31" viewBox="0 0 129 31" fill="none" xmlns="http://www.w3.org/2000/svg">
<g clip-path="url(#clip0_11401_9262)">
<path d="M46.4551 29.5413V27.053H47.1893L47.7137 27.953L48.2381 27.053H48.9724V29.5413H48.2906V28.1647L47.9235 28.7471H47.5564L47.1893 28.1647V29.5413H46.4551Z" fill="white"/>
<path d="M50.1268 27.053H49.3916V29.4883H50.1268V27.053Z" fill="white"/>
<path d="M50.2832 29.5411L51.1748 28.2704L50.3881 27.0527H51.2796L51.8565 28.0587V27.0527H52.5907V28.0587L53.1676 27.0527H54.0067L53.22 28.2704L54.1115 29.5411H53.22L52.5907 28.5351V29.5411H51.8565V28.5351L51.1748 29.5411H50.2832Z" fill="white"/>
<path d="M54.2686 29.5413V27.053H55.0028V27.9001H55.737V27.053H56.5236V29.5413H55.737V28.5883H55.0028V29.5413H54.2686Z" fill="white"/>
<path d="M56.6807 29.5411L57.6771 27.0527H58.4113L59.4077 29.5411H58.621L58.4113 29.0645H57.6246L57.4673 29.5411H56.6807ZM57.8344 28.4822H58.2015L58.0442 27.8998L57.8344 28.4822Z" fill="white"/>
<path d="M60.7182 27.0527C60.9804 27.0527 61.2427 27.1057 61.4 27.2645C61.5574 27.4234 61.6622 27.5822 61.6622 27.8469C61.6622 28.0587 61.5574 28.2704 61.4 28.4293C61.2427 28.588 61.0329 28.6411 60.7182 28.6411H60.3511V29.488H59.5645V27.0527H60.7182ZM60.6133 28.1116C60.7707 28.1116 60.8756 28.0057 60.8756 27.8998C60.8756 27.794 60.7707 27.688 60.6133 27.688H60.3511V28.1116H60.6133Z" fill="white"/>
<path d="M62.1347 27.4236C62.397 27.1589 62.7116 27.053 63.0787 27.053C63.4458 27.053 63.7605 27.1589 64.0227 27.4236C64.2849 27.6883 64.3898 27.953 64.3898 28.3236C64.3898 28.6942 64.2849 28.9589 64.0227 29.2236C63.7605 29.4354 63.4458 29.5942 63.0787 29.5942C62.7116 29.5942 62.397 29.4883 62.1347 29.2236C61.8725 28.9589 61.7676 28.6942 61.7676 28.3236C61.7676 27.953 61.9249 27.6354 62.1347 27.4236ZM63.0787 28.906C63.236 28.906 63.3409 28.853 63.4458 28.7471C63.5507 28.6413 63.6031 28.4824 63.6031 28.3236C63.6031 28.1647 63.5507 28.006 63.4458 27.9001C63.3409 27.7942 63.236 27.7413 63.0787 27.7413C62.9214 27.7413 62.8164 27.7942 62.7116 27.9001C62.6067 28.006 62.5542 28.1647 62.5542 28.3236C62.5542 28.4824 62.6067 28.6413 62.7116 28.7471C62.8164 28.853 62.9214 28.906 63.0787 28.906Z" fill="white"/>
<path d="M64.4424 29.9647V28.853H64.7046C64.8619 28.5883 64.9144 28.1118 64.9144 27.5295V27.053H66.8023V28.853H67.117V29.9647H66.4352V29.4883H65.1766V29.9647H64.4424ZM66.0682 28.906V27.7413H65.5962C65.5962 27.953 65.5962 28.1647 65.5437 28.3765C65.4912 28.5883 65.4912 28.8001 65.3863 28.906H66.0682Z" fill="white"/>
<path d="M67.3789 29.5413V27.053H68.113V27.9001H68.8472V27.053H69.5815V29.5413H68.8472V28.5883H68.113V29.5413H67.3789Z" fill="white"/>
<path d="M69.9492 29.5413V27.053H70.6834V28.2707L71.6274 27.053H72.2568V29.5413H71.5226V28.3236L70.631 29.5413H69.9492Z" fill="white"/>
<path d="M72.624 29.5411V27.1058H73.3582V28.3235L74.3022 27.1058H74.9315V29.5411H74.1974V28.3235L73.2533 29.5411H72.624ZM73.2533 26.7882C73.1484 26.6823 73.0436 26.5235 73.0436 26.3118H73.5155C73.5155 26.4176 73.568 26.5235 73.7253 26.5235C73.8303 26.5235 73.9351 26.4705 73.9351 26.3118H74.4071C74.4071 26.5235 74.3546 26.6823 74.1974 26.7882C74.0924 26.8941 73.8826 26.947 73.7253 26.947C73.568 26.947 73.4107 26.8941 73.2533 26.7882Z" fill="white"/>
<path d="M76.1367 29.541V27.1057H78.0247V27.741H76.8709V27.9528H77.238C77.5527 27.9528 77.7625 28.0057 77.9198 28.1646C78.0772 28.3233 78.1821 28.5351 78.1821 28.7469C78.1821 29.0116 78.0772 29.1704 77.9198 29.3293C77.7625 29.488 77.5003 29.541 77.238 29.541H76.1367ZM76.8709 28.9057H77.1856C77.3429 28.9057 77.4479 28.7998 77.4479 28.6939C77.4479 28.5351 77.3429 28.4293 77.1856 28.4293H76.8709V28.9057Z" fill="white"/>
<path d="M78.2871 28.853C78.3396 28.906 78.392 28.906 78.4445 28.906C78.5494 28.906 78.6018 28.906 78.6542 28.853C78.7591 28.8 78.8116 28.5353 78.8116 27.953V27.106H80.7519V29.5413H80.0178V27.7413H79.4933V28.0589C79.4933 28.6413 79.3884 29.0648 79.2311 29.2766C79.0738 29.4883 78.864 29.5942 78.6018 29.5942C78.4445 29.5942 78.3396 29.5942 78.2871 29.5413V28.853Z" fill="white"/>
<path d="M80.9092 29.5413L81.9057 27.053H82.6399L83.6363 29.5413H82.8496L82.6399 29.0647H81.8532L81.6958 29.5413H80.9092ZM82.0629 28.4824H82.4301L82.2728 27.9001L82.0629 28.4824Z" fill="white"/>
<path d="M83.7939 29.5413V27.053H85.6819V27.7413H84.5282V29.5413H83.7939Z" fill="white"/>
<path d="M86.1542 27.4236C86.4164 27.1589 86.7311 27.053 87.0982 27.053C87.4653 27.053 87.7799 27.1589 88.0421 27.4236C88.3044 27.6883 88.4092 27.953 88.4092 28.3236C88.4092 28.6942 88.3044 28.9589 88.0421 29.2236C87.7799 29.4883 87.4653 29.5942 87.0982 29.5942C86.7311 29.5942 86.4164 29.4883 86.1542 29.2236C85.8919 28.9589 85.7871 28.6942 85.7871 28.3236C85.7871 27.953 85.8919 27.6354 86.1542 27.4236ZM87.0457 28.906C87.2031 28.906 87.3079 28.853 87.4128 28.7471C87.5177 28.6413 87.5702 28.4824 87.5702 28.3236C87.5702 28.1647 87.5177 28.006 87.4128 27.9001C87.3079 27.7942 87.2031 27.7413 87.0457 27.7413C86.8884 27.7413 86.7835 27.7942 86.6786 27.9001C86.5737 28.006 86.5213 28.1647 86.5213 28.3236C86.5213 28.4824 86.5737 28.6413 86.6786 28.7471C86.7835 28.853 86.9408 28.906 87.0457 28.906Z" fill="white"/>
<path d="M88.4082 29.9647V28.853H88.6704C88.8277 28.5883 88.8801 28.1118 88.8801 27.5295V27.053H90.7682V28.853H91.0824V29.9647H90.4007V29.4883H89.1422V29.9647H88.4082ZM90.0342 28.906V27.7413H89.562C89.562 27.953 89.562 28.1647 89.5096 28.3765C89.4572 28.5883 89.4572 28.8001 89.3525 28.906H90.0342Z" fill="white"/>
<path d="M92.1335 27.0527H91.3984V29.488H92.1335V27.0527Z" fill="white"/>
<path d="M92.5 29.5411V27.1058H93.234V28.3235L94.1775 27.1058H94.8068V29.5411H94.0728V28.3235L93.1293 29.5411H92.5ZM93.1817 26.7882C93.0769 26.6823 92.9713 26.5235 92.9713 26.3118H93.4435C93.4435 26.4176 93.4959 26.5235 93.6539 26.5235C93.7586 26.5235 93.8633 26.4705 93.8633 26.3118H94.3355C94.3355 26.5235 94.2832 26.6823 94.1252 26.7882C93.9681 26.8941 93.811 26.947 93.6539 26.947C93.4959 26.947 93.2864 26.8941 93.1817 26.7882Z" fill="white"/>
<path d="M95.1211 29.5413V27.053H95.9075V27.9001H96.6424V27.053H97.3765V29.5413H96.6424V28.5883H95.9075V29.5413H95.1211Z" fill="white"/>
<path d="M97.7432 29.5413V27.053H98.4772V28.2707L99.4216 27.053H99.9985V29.5413H99.3169V28.3236L98.3725 29.5413H97.7432Z" fill="white"/>
<path d="M100.366 29.5411V27.1058H101.1V28.3235L102.044 27.1058H102.673V29.5411H101.939V28.3235L100.996 29.5411H100.366ZM101.048 26.7882C100.942 26.6823 100.838 26.5235 100.838 26.3118H101.31C101.31 26.4176 101.362 26.5235 101.519 26.5235C101.677 26.5235 101.73 26.4705 101.73 26.3118H102.201C102.201 26.5235 102.148 26.6823 101.991 26.7882C101.887 26.8941 101.73 26.947 101.519 26.947C101.31 26.947 101.153 26.8941 101.048 26.7882Z" fill="white"/>
<path d="M104.981 29.6473V29.3826C104.614 29.3826 104.352 29.2237 104.142 29.012C103.932 28.8002 103.827 28.5355 103.827 28.2708C103.827 27.9531 103.932 27.7413 104.142 27.5297C104.352 27.3179 104.614 27.212 104.981 27.159V26.9473H105.715V27.159C106.083 27.159 106.344 27.3179 106.555 27.5297C106.764 27.7413 106.869 28.0061 106.869 28.2708C106.869 28.5884 106.764 28.8002 106.555 29.012C106.344 29.2237 106.083 29.3297 105.715 29.3826V29.6473H104.981ZM104.981 27.7943C104.772 27.7943 104.614 27.9531 104.614 28.2708C104.614 28.5884 104.772 28.6943 104.981 28.7473V27.7943ZM105.715 28.7473C105.925 28.7473 106.083 28.5884 106.083 28.2708C106.083 27.9531 105.925 27.8473 105.715 27.7943V28.7473Z" fill="white"/>
<path d="M107.446 27.4236C107.707 27.1589 108.023 27.053 108.389 27.053C108.757 27.053 109.071 27.1589 109.333 27.4236C109.595 27.6883 109.701 27.953 109.701 28.3236C109.701 28.6942 109.595 28.9589 109.333 29.2236C109.071 29.4883 108.757 29.5942 108.389 29.5942C108.023 29.5942 107.707 29.4883 107.446 29.2236C107.183 28.9589 107.078 28.6942 107.078 28.3236C107.078 27.953 107.183 27.6354 107.446 27.4236ZM108.389 28.906C108.547 28.906 108.652 28.853 108.757 28.7471C108.861 28.6413 108.914 28.4824 108.914 28.3236C108.914 28.1647 108.861 28.006 108.757 27.9001C108.652 27.7942 108.547 27.7413 108.389 27.7413C108.232 27.7413 108.127 27.7942 108.023 27.9001C107.918 28.006 107.865 28.1647 107.865 28.3236C107.865 28.4824 107.918 28.6413 108.023 28.7471C108.075 28.853 108.232 28.906 108.389 28.906Z" fill="white"/>
<path d="M109.963 29.5413V27.053H110.749V27.9001H111.483V27.053H112.218V29.5413H111.483V28.5883H110.749V29.5413H109.963Z" fill="white"/>
<path d="M112.375 29.9647V28.853H112.637C112.795 28.5883 112.9 28.1118 112.9 27.5295V27.053H114.787V28.853H115.102V29.9647H114.42V29.4883H113.161V29.9647H112.375ZM114.001 28.906V27.7413H113.581C113.581 27.953 113.581 28.1647 113.529 28.3765C113.476 28.5883 113.476 28.8001 113.372 28.906H114.001Z" fill="white"/>
<path d="M46.6113 11.9651H48.9189V23.0298H54.4778V25.0945H46.6113V11.9651Z" fill="white"/>
<path d="M64.0225 20.7532V21.0708C64.0225 21.1768 64.0225 21.2826 64.0225 21.3885H57.2573C57.2573 21.7061 57.3622 22.0238 57.5195 22.2885C57.6769 22.5532 57.8343 22.765 58.0964 22.9768C58.3062 23.1885 58.5684 23.2944 58.8831 23.4532C59.1978 23.5591 59.46 23.6121 59.8271 23.6121C60.4039 23.6121 60.8235 23.5061 61.243 23.2944C61.6101 23.0826 61.9248 22.8179 62.187 22.4474L63.6554 23.6121C62.7114 24.7768 61.4528 25.3591 59.8271 25.3591C59.1453 25.3591 58.516 25.2532 57.9391 25.0414C57.3622 24.8297 56.8378 24.5121 56.4183 24.1414C55.9987 23.7708 55.6841 23.2414 55.4218 22.6591C55.1596 22.0768 55.0547 21.4414 55.0547 20.7003C55.0547 19.9591 55.1596 19.3238 55.4218 18.7414C55.6841 18.1591 55.9987 17.6297 56.4183 17.2591C56.8378 16.8356 57.3098 16.5179 57.8866 16.3061C58.4636 16.0944 59.0929 15.9885 59.7221 15.9885C60.3514 15.9885 60.9284 16.0944 61.4003 16.3061C61.8723 16.5179 62.3968 16.8356 62.7639 17.2061C63.131 17.6297 63.4457 18.1061 63.6554 18.6885C63.9176 19.2708 64.0225 19.9591 64.0225 20.7532ZM61.8199 19.7474C61.8199 19.4826 61.7674 19.165 61.715 18.9532C61.6626 18.6885 61.5052 18.4768 61.3479 18.265C61.1906 18.0532 60.9808 17.8944 60.7186 17.7885C60.4564 17.6826 60.1417 17.6297 59.7746 17.6297C59.0928 17.6297 58.5684 17.8414 58.0964 18.2121C57.6244 18.6356 57.3622 19.1121 57.3098 19.7474H61.8199Z" fill="white"/>
<path d="M64.8613 17.9998V16.1998H66.3821V13.6057H68.5323V16.1998H70.7349V17.9998H68.5323V22.1293C68.5323 22.4998 68.5848 22.8704 68.7421 23.1351C68.8994 23.3998 69.2141 23.5057 69.6861 23.5057C69.8434 23.5057 70.0007 23.5057 70.1581 23.4528C70.3154 23.3998 70.4727 23.3998 70.63 23.2939L70.6825 25.041C70.4727 25.0939 70.2629 25.1998 70.0007 25.1998C69.7385 25.2528 69.4763 25.2528 69.2141 25.2528C68.6372 25.2528 68.1652 25.1469 67.7981 24.988C67.431 24.8293 67.1163 24.6175 66.9066 24.2998C66.6968 23.9822 66.5395 23.6646 66.487 23.2939C66.3821 22.9233 66.3821 22.4998 66.3821 22.0762V17.8939L64.8613 17.9998Z" fill="white"/>
<path d="M73.5672 11.9648H75.7174L74.1441 16.8355H72.3086L73.5672 11.9648Z" fill="white"/>
<path d="M81.7477 18.5823C81.5379 18.3176 81.2757 18.1058 80.961 17.8941C80.5939 17.6823 80.2268 17.6294 79.8597 17.6294C79.4926 17.6294 79.178 17.6823 78.8633 17.8411C78.5487 18 78.4438 18.2118 78.4438 18.5823C78.4438 18.9529 78.6011 19.1647 78.9158 19.3235C79.2304 19.4823 79.7024 19.5882 80.3317 19.7471C80.6464 19.8 81.0135 19.9058 81.3282 20.0647C81.6428 20.1705 81.9575 20.3294 82.2721 20.5411C82.5343 20.7529 82.7966 21.0176 82.9539 21.2823C83.1112 21.6 83.2161 21.9705 83.2161 22.3941C83.2161 22.9235 83.1112 23.4 82.9014 23.7705C82.6917 24.1411 82.4295 24.4588 82.1148 24.6705C81.8001 24.8823 81.3806 25.0941 80.961 25.2C80.4366 25.3058 79.9646 25.3588 79.4926 25.3588C78.8109 25.3588 78.1291 25.2529 77.4998 24.9882C76.8704 24.7235 76.2936 24.3529 75.874 23.8765L77.3424 22.5C77.6046 22.8176 77.9194 23.0823 78.2864 23.2941C78.6535 23.5058 79.1255 23.6118 79.5975 23.6118C79.7548 23.6118 79.9122 23.6118 80.0695 23.5588C80.2268 23.5058 80.3842 23.4529 80.5415 23.4C80.6989 23.3471 80.8037 23.1882 80.8561 23.0823C80.9611 22.9235 80.961 22.7647 80.961 22.6058C80.961 22.2353 80.8037 21.9705 80.4366 21.8118C80.1219 21.6529 79.5975 21.4941 78.9158 21.3353C78.6011 21.2823 78.2864 21.1765 77.9717 21.0705C77.6571 20.9647 77.3949 20.8058 77.1327 20.5941C76.8704 20.3823 76.7132 20.1705 76.5558 19.8529C76.3985 19.5882 76.346 19.2176 76.346 18.7941C76.346 18.3176 76.451 17.8941 76.6607 17.5235C76.8704 17.1529 77.1327 16.8882 77.4474 16.6235C77.762 16.4118 78.1291 16.2 78.5487 16.0941C78.9682 15.9882 79.3877 15.9353 79.8597 15.9353C80.489 15.9353 81.1183 16.0411 81.7477 16.2529C82.377 16.4647 82.849 16.8353 83.2161 17.2588L81.7477 18.5823Z" fill="white"/>
<path d="M94.5968 15.9356C95.1737 15.9356 95.6459 16.0414 96.0648 16.2532C96.4847 16.4649 96.7998 16.7296 97.0616 17.0473C97.3234 17.3649 97.5338 17.7885 97.6385 18.212C97.7433 18.6356 97.848 19.112 97.848 19.5356V25.0943H95.6459V20.1708C95.6459 19.9061 95.6459 19.6414 95.5935 19.3767C95.5412 19.112 95.4879 18.8473 95.3832 18.6356C95.2784 18.4238 95.1213 18.212 94.9119 18.0532C94.7015 17.8943 94.3873 17.8414 94.0722 17.8414C93.758 17.8414 93.3905 17.8943 93.1287 18.0532C92.866 18.212 92.6565 18.3708 92.4994 18.5826C92.3414 18.7943 92.1843 19.0591 92.1319 19.3767C92.0272 19.6414 92.0272 19.9591 92.0272 20.2238V25.0943H89.8242V11.0649H92.0272V17.4179H92.0796C92.1843 17.2061 92.289 17.0473 92.447 16.8885C92.6041 16.7296 92.8136 16.5708 93.0231 16.412C93.2334 16.2532 93.4953 16.1473 93.758 16.0943C93.9675 15.9885 94.2826 15.9356 94.5968 15.9356Z" fill="white"/>
<path d="M108.861 20.753V21.0707C108.861 21.1766 108.861 21.2824 108.861 21.3883H102.148C102.148 21.706 102.253 22.0237 102.411 22.2883C102.568 22.553 102.725 22.7648 102.987 22.9766C103.197 23.1883 103.46 23.2942 103.774 23.453C104.089 23.559 104.351 23.6119 104.718 23.6119C105.295 23.6119 105.714 23.5059 106.134 23.2942C106.501 23.0824 106.816 22.8177 107.077 22.4472L108.546 23.6119C107.654 24.7766 106.396 25.4119 104.771 25.4119C104.089 25.4119 103.46 25.306 102.883 25.0942C102.306 24.8824 101.781 24.5648 101.361 24.1942C100.942 23.8236 100.627 23.2942 100.366 22.7119C100.103 22.1295 99.998 21.4942 99.998 20.753C99.998 20.0119 100.103 19.3766 100.366 18.7942C100.627 18.2119 100.942 17.6824 101.361 17.3119C101.781 16.8883 102.253 16.5707 102.83 16.359C103.406 16.1472 104.036 16.0413 104.666 16.0413C105.295 16.0413 105.871 16.1472 106.343 16.359C106.868 16.5707 107.34 16.8883 107.707 17.259C108.074 17.6824 108.389 18.159 108.599 18.7413C108.756 19.2707 108.861 19.959 108.861 20.753ZM106.658 19.7472C106.658 19.4824 106.606 19.1648 106.554 18.953C106.448 18.6883 106.343 18.4766 106.186 18.2648C106.029 18.053 105.819 17.8942 105.557 17.7883C105.295 17.6824 104.98 17.6295 104.613 17.6295C103.931 17.6295 103.406 17.8413 102.935 18.2119C102.463 18.6354 102.201 19.1119 102.148 19.7472H106.658Z" fill="white"/>
<path d="M113.214 11.0647H111.012V25.0941H113.214V11.0647Z" fill="white"/>
<path d="M118.038 16.2002V17.4179H118.091C118.196 17.259 118.353 17.0473 118.511 16.8885C118.668 16.7296 118.93 16.5708 119.14 16.4119C119.402 16.2532 119.664 16.1473 120.031 16.0414C120.346 15.9355 120.714 15.8826 121.133 15.8826C121.762 15.8826 122.339 15.9885 122.863 16.2532C123.388 16.5179 123.86 16.8355 124.227 17.259C124.594 17.6826 124.908 18.159 125.119 18.7414C125.328 19.3237 125.433 19.9061 125.433 20.5943C125.433 21.2826 125.328 21.865 125.119 22.4473C124.908 23.0296 124.646 23.5061 124.279 23.9296C123.912 24.3532 123.44 24.7237 122.916 24.9355C122.391 25.2002 121.762 25.3061 121.08 25.3061C120.451 25.3061 119.874 25.2002 119.349 24.9355C118.826 24.6708 118.406 24.3002 118.143 23.8767H118.091V29.5943H115.889V16.2002H118.038ZM123.178 20.5943C123.178 20.2237 123.126 19.9061 123.02 19.5885C122.916 19.2708 122.759 18.9532 122.549 18.6885C122.339 18.4237 122.077 18.2119 121.762 18.0532C121.448 17.8943 121.08 17.7885 120.661 17.7885C120.241 17.7885 119.874 17.8943 119.56 18.0532C119.245 18.2119 118.983 18.4237 118.72 18.7414C118.511 19.0061 118.301 19.3237 118.196 19.6943C118.091 20.065 118.038 20.3826 118.038 20.7532C118.038 21.1237 118.091 21.4414 118.196 21.759C118.301 22.0767 118.458 22.3943 118.72 22.659C118.93 22.9237 119.245 23.1355 119.56 23.2943C119.874 23.4532 120.241 23.559 120.661 23.559C121.08 23.559 121.448 23.4532 121.762 23.2943C122.077 23.1355 122.339 22.9237 122.549 22.6061C122.759 22.3414 122.916 22.0237 123.02 21.6532C123.126 21.2826 123.178 20.965 123.178 20.5943Z" fill="white"/>
<path d="M126.063 24.5651C126.063 24.1945 126.221 23.8239 126.483 23.5592C126.745 23.2945 127.113 23.1357 127.532 23.1357C127.899 23.1357 128.266 23.2945 128.581 23.5592C128.896 23.8239 129.001 24.1416 129.001 24.5651C129.001 24.9357 128.843 25.3063 128.581 25.571C128.266 25.8357 127.951 25.9945 127.532 25.9945C127.322 25.9945 127.165 25.9416 126.956 25.8886C126.798 25.8357 126.64 25.7298 126.483 25.571C126.326 25.4651 126.221 25.3063 126.168 25.1474C126.116 24.9357 126.063 24.7239 126.063 24.5651ZM128.633 21.7063H126.431V12.7063H128.633V21.7063Z" fill="white"/>
<mask id="mask0_11401_9262" style="mask-type:luminance" maskUnits="userSpaceOnUse" x="0" y="0" width="39" height="31">
<path d="M38.6883 0.264893H0.299805V30.7853H38.6883V0.264893Z" fill="white"/>
</mask>
<g mask="url(#mask0_11401_9262)">
<path d="M6.85348 13.3451C6.32427 13.3451 4.73662 10.9586 3.88174 8.06716C2.86401 4.7168 3.47464 2.14665 3.47464 2.10076C3.67819 1.27464 3.88174 0.953369 4.08528 0.953369C4.45166 0.953369 4.73662 2.05486 5.14371 4.07426C5.38796 5.17575 5.67293 6.46082 5.99859 7.47052C6.81278 9.9489 7.30128 12.6108 7.01632 13.2074C6.9756 13.2533 6.9349 13.2992 6.89419 13.3451C6.89419 13.3451 6.89419 13.3451 6.85348 13.3451ZM4.12599 1.09106C4.00386 1.09106 3.84103 1.27464 3.59678 2.19254C3.59678 2.23844 2.98614 4.76269 4.00386 8.06716C4.89946 11.0045 6.44639 13.2533 6.89419 13.2533C6.89419 13.2533 6.89419 13.2533 6.9349 13.2533L6.9756 13.2074C7.21986 12.7026 6.81278 10.1783 5.95789 7.56231C5.63222 6.55261 5.34726 5.26754 5.103 4.16605C4.73662 2.60561 4.41095 1.09106 4.12599 1.09106Z" fill="white"/>
<path d="M12.2264 20.1835C11.1273 20.1835 8.44052 19.4033 6.85288 18.21C5.50949 17.2003 4.81744 16.0529 4.85814 15.4562C4.85814 15.2727 4.93956 15.1809 5.06169 15.0891C5.14311 15.0432 5.26523 14.9973 5.38736 14.9973C6.07941 14.9973 7.58564 15.6398 8.68478 17.0167C9.33609 17.8428 10.5981 18.5772 11.4937 19.082C12.2672 19.541 12.6742 19.7705 12.6742 19.954C12.6742 19.9999 12.6742 20.0458 12.5928 20.0917C12.5521 20.1835 12.4299 20.1835 12.2264 20.1835ZM5.38736 15.1809C5.26523 15.1809 5.18382 15.1809 5.1024 15.2268C5.02098 15.2727 4.98027 15.3645 4.98027 15.5021C4.93956 16.0529 5.67233 17.2003 6.9343 18.1182C8.52194 19.3115 11.168 20.0917 12.2264 20.0917C12.4299 20.0917 12.5114 20.0458 12.5521 20.0458H12.5928C12.5928 19.9082 11.9822 19.5869 11.4937 19.2656C10.5574 18.7149 9.29543 18.0264 8.64407 17.1544C7.58564 15.8693 6.07941 15.1809 5.38736 15.1809Z" fill="white"/>
<path d="M32.0932 13.2534H32.0526C32.0118 13.2534 31.9711 13.2075 31.9304 13.1157C31.6454 12.5191 32.134 9.85704 32.9481 7.37872C33.2738 6.36902 33.5588 5.08395 33.803 3.98246C34.2101 2.00896 34.495 0.861572 34.8614 0.861572C35.065 0.861572 35.2686 1.22874 35.4721 2.00896C35.4721 2.05486 36.0827 4.62499 35.065 7.97536C34.2101 10.8208 32.6225 13.2534 32.0932 13.2534ZM34.8614 0.999259C34.5358 0.999259 34.2101 2.51381 33.9251 4.02836C33.6809 5.17574 33.3959 6.41492 33.0703 7.42462C32.2154 10.0406 31.8083 12.5649 32.0526 13.0698C32.0526 13.1157 32.0526 13.1157 32.0932 13.1157C32.0932 13.1157 32.0932 13.1157 32.134 13.1157C32.5818 13.1157 34.1287 10.8667 35.0243 7.92947C36.0013 4.62499 35.4313 2.05486 35.4313 2.05486C35.1464 1.18284 34.9836 0.999259 34.8614 0.999259Z" fill="white"/>
<path d="M26.759 20.0918C26.5555 20.0918 26.4334 20.0918 26.3519 20.0459C26.2705 20 26.2705 19.9541 26.2705 19.9082C26.2705 19.7246 26.6369 19.4951 27.4511 19.0362C28.3467 18.5313 29.6086 17.7969 30.26 16.9708C31.3591 15.594 32.9061 14.9514 33.5574 14.9514C33.6795 14.9514 33.8017 14.9973 33.8831 15.0432C34.0052 15.0891 34.0459 15.2268 34.0866 15.4104C34.1273 16.007 33.4353 17.1544 32.0919 18.1641C30.5042 19.3115 27.8175 20.0918 26.759 20.0918ZM33.5982 15.0432C32.9061 15.0432 31.3999 15.7316 30.3822 17.0167C29.6901 17.8428 28.4281 18.5772 27.5325 19.128C27.0033 19.4492 26.4334 19.7705 26.4334 19.9082C26.4334 19.9082 26.4334 19.9082 26.474 19.9082C26.5148 19.9541 26.5962 19.9541 26.7998 19.9541C27.8581 19.9541 30.5449 19.1739 32.0919 17.9805C33.3539 17.0626 34.0459 15.9152 34.0459 15.3645C34.0459 15.2268 34.0052 15.135 33.9238 15.0891C33.8017 15.0891 33.7203 15.0432 33.5982 15.0432Z" fill="white"/>
<path d="M18.3329 20.5048C17.8444 20.5048 13.2443 18.5772 12.6336 17.7511C12.0637 17.0167 11.7381 16.3283 11.7788 16.053C11.7788 15.9612 11.8195 15.9153 11.8602 15.9153C11.9009 15.9153 11.9009 15.8694 11.9416 15.8694C12.2266 15.8694 12.8779 16.4201 13.4886 17.2003C13.855 17.6593 15.5647 18.6231 16.7859 19.3574C18.2108 20.1376 18.4143 20.3212 18.4143 20.413C18.4143 20.4589 18.4143 20.4589 18.3737 20.4589C18.3737 20.5048 18.3329 20.5048 18.3329 20.5048ZM11.9416 16.0071H11.9009C11.9009 16.0071 11.8602 16.0071 11.8602 16.053C11.8195 16.2365 12.1045 16.8791 12.7151 17.6593C13.285 18.3936 17.4373 20.1835 18.2515 20.3671C18.0073 20.1835 17.3966 19.8163 16.7453 19.4951C15.4426 18.7608 13.7735 17.797 13.4072 17.338C12.7558 16.466 12.1452 16.0071 11.9416 16.0071Z" fill="white"/>
<path d="M13.4878 21.9732C12.7551 21.9732 11.6967 21.7438 11.0046 21.4225C10.1497 21.0554 9.5798 20.5046 9.49841 20.0916C9.45767 19.9539 9.49841 19.8162 9.5798 19.7244C9.66128 19.6326 9.74267 19.5867 9.82406 19.5867C10.0276 19.5867 10.2718 19.7244 10.5976 19.9539C10.8825 20.1375 11.2082 20.3669 11.656 20.5505C12.0631 20.7341 12.633 20.8718 13.0808 21.0095C13.8542 21.2389 14.2614 21.3307 14.3428 21.5602C14.3428 21.6061 14.3428 21.652 14.302 21.7438C14.1392 21.9274 13.895 21.9732 13.4878 21.9732ZM9.78341 19.7244C9.70193 19.7244 9.66128 19.7703 9.62054 19.8162C9.5798 19.908 9.53915 19.9998 9.5798 20.0916C9.66128 20.4587 10.2312 20.9636 11.0454 21.3307C11.7374 21.652 12.7958 21.8815 13.4878 21.8815C13.9764 21.8815 14.1392 21.7897 14.1799 21.6979C14.2206 21.652 14.1799 21.652 14.1799 21.652C14.1392 21.5143 13.5286 21.3307 12.9994 21.193C12.5109 21.0554 11.9816 20.9177 11.5338 20.7341C11.1268 20.5505 10.7604 20.321 10.4755 20.0916C10.1905 19.8621 9.94619 19.7244 9.78341 19.7244Z" fill="white"/>
<path d="M20.6537 20.4135C20.6129 20.4135 20.6129 20.4135 20.6129 20.4135C20.5723 20.4135 20.5723 20.3676 20.5723 20.3676C20.5723 20.2758 20.8165 20.0922 22.2006 19.312C23.4626 18.6236 25.1316 17.6139 25.498 17.1549C26.1087 16.3747 26.7192 15.824 27.045 15.824C27.0856 15.824 27.1264 15.824 27.1264 15.8699C27.1671 15.8699 27.2078 15.9158 27.2078 16.0076C27.2485 16.2829 26.9229 16.9714 26.3529 17.7057C25.7015 18.44 21.1422 20.4135 20.6537 20.4135ZM27.045 15.9158C26.8414 15.9158 26.2308 16.3747 25.5794 17.2008C25.213 17.7057 23.544 18.6236 22.2413 19.3579C21.6307 19.7251 20.9793 20.0922 20.735 20.2299C21.5492 20.0463 25.7015 18.2564 26.2715 17.5221C26.8821 16.7419 27.1264 16.1453 27.1264 15.9158C27.1264 15.8699 27.1264 15.8699 27.0856 15.8699C27.0856 15.9158 27.045 15.9158 27.045 15.9158Z" fill="white"/>
<path d="M25.4978 21.8821C25.0906 21.8821 24.8465 21.7903 24.7243 21.6526C24.6836 21.5608 24.6836 21.5149 24.6836 21.469C24.7243 21.2855 25.1721 21.1478 25.9456 20.9183C26.4341 20.7806 26.9633 20.6429 27.3704 20.4594C27.7775 20.2758 28.1438 20.0463 28.4288 19.8627C28.7545 19.6332 28.9988 19.4956 29.2023 19.4956C29.2837 19.4956 29.3651 19.5415 29.4466 19.6332C29.528 19.725 29.5687 19.8627 29.528 20.0004C29.4466 20.4135 28.8359 20.9642 28.0217 21.3314C27.2889 21.6526 26.2306 21.8821 25.4978 21.8821ZM29.2023 19.6332C29.0394 19.6332 28.7952 19.7709 28.5102 20.0004C28.2252 20.184 27.8588 20.4135 27.4518 20.6429C27.004 20.8265 26.4747 21.0101 25.9863 21.1019C25.457 21.2396 24.8465 21.4231 24.8057 21.5608C24.8057 21.5608 24.8057 21.5608 24.8057 21.6067C24.8465 21.6526 25.0092 21.7903 25.4978 21.7903C26.2306 21.7903 27.2483 21.5608 27.9403 21.2396C28.7138 20.8724 29.3244 20.3676 29.4058 20.0004C29.4466 19.9086 29.4058 19.8168 29.3651 19.725C29.3244 19.6333 29.2429 19.6332 29.2023 19.6332Z" fill="white"/>
<path d="M16.4608 18.99C15.8908 18.99 11.0465 14.4464 10.2323 12.3811C9.4996 10.5912 9.13319 8.98482 9.29599 8.47997C9.33673 8.38818 9.37747 8.34228 9.45886 8.29639C9.4996 8.29639 9.4996 8.29639 9.54025 8.29639C9.98804 8.29639 10.9651 9.81094 11.7793 11.7845C12.2271 12.8859 13.6926 14.8135 14.8731 16.4199C16.0944 18.0721 16.6236 18.7605 16.5422 18.9441C16.5422 18.9441 16.5422 18.99 16.4608 18.99C16.5015 18.99 16.5015 18.99 16.4608 18.99ZM9.54025 8.38818H9.4996C9.45886 8.38818 9.41812 8.43407 9.41812 8.47997C9.25533 8.93892 9.62173 10.5453 10.3138 12.2893C11.128 14.2628 15.8908 18.8064 16.4608 18.8523C16.4608 18.6228 15.6059 17.5213 14.7917 16.4657C13.6112 14.9053 12.1049 12.9318 11.6571 11.8304C10.8022 9.71914 9.90665 8.38818 9.54025 8.38818Z" fill="white"/>
<path d="M22.4851 18.8985C22.4037 18.8985 22.4037 18.8526 22.4037 18.8067C22.363 18.6231 22.8515 17.9347 24.0727 16.2824C25.2533 14.722 26.7188 12.7484 27.1667 11.647C27.9808 9.6735 28.9578 8.15894 29.4056 8.15894C29.4464 8.15894 29.4463 8.15894 29.487 8.15894C29.5685 8.20483 29.6091 8.25073 29.6499 8.34252C29.8534 8.84736 29.487 10.4537 28.7543 12.2436C27.8994 14.3549 23.055 18.8985 22.4851 18.8985ZM29.4463 8.29662C29.08 8.29662 28.1844 9.5817 27.2887 11.6929C26.8409 12.7943 25.3347 14.7679 24.1542 16.3283C23.34 17.3839 22.4851 18.5313 22.4851 18.7149C23.055 18.669 27.818 14.1254 28.6322 12.1518C29.3242 10.4078 29.7313 8.80147 29.5277 8.34252C29.487 8.29662 29.487 8.25073 29.4463 8.25073C29.4463 8.29662 29.4463 8.29662 29.4463 8.29662Z" fill="white"/>
<path d="M23.5024 20.0916C23.421 20.0916 23.3802 20.0916 23.3395 20.0457C23.2988 20.0457 23.2988 19.9998 23.2988 19.9539C23.2988 19.8162 23.5837 19.6326 24.4387 19.1736C25.6192 18.4852 27.4511 17.4296 28.306 16.2822C29.6087 14.5382 30.9114 13.2073 31.3998 13.2073C31.4406 13.2073 31.4813 13.2073 31.522 13.2532C31.5627 13.2532 31.6034 13.2991 31.6441 13.4368C31.7256 13.9416 30.952 15.4561 29.6901 17.1084C28.3467 18.8065 24.3979 20.0916 23.5024 20.0916ZM23.3802 19.9539C23.3802 19.9539 23.421 19.9539 23.4616 19.9539C24.1944 19.9539 28.2246 18.7606 29.5273 17.0166C30.8706 15.1808 31.522 13.8039 31.4406 13.4368C31.4406 13.3909 31.3998 13.345 31.3998 13.345H31.3592C30.9928 13.345 29.7308 14.4923 28.3467 16.374C27.4918 17.5214 25.6599 18.577 24.4794 19.2654C23.9909 19.5408 23.5024 19.8162 23.3802 19.9539Z" fill="white"/>
<path d="M11.8595 16.0073C11.6967 16.0073 7.91077 12.6569 7.05588 10.1326C5.67178 6.18566 5.63106 4.39574 5.71248 4.21215C5.7532 4.12036 5.7939 4.07446 5.83461 4.07446C5.99745 4.07446 6.20099 4.717 6.6895 6.50692C6.97446 7.56252 7.34084 8.75579 7.66651 9.81141C8.35856 11.739 10.5162 14.2633 11.4117 15.3189C11.9003 15.8696 11.9003 15.9155 11.9003 15.9614V16.0073H11.8595ZM5.83461 4.21215C5.7939 4.21215 5.7939 4.25805 5.83461 4.21215C5.83461 4.25805 5.67178 5.81849 7.178 10.0867C7.91076 12.1979 10.679 14.8599 11.6153 15.6401C11.5339 15.5483 11.4931 15.4566 11.4117 15.3648C10.4754 14.2633 8.31785 11.739 7.6258 9.81141C7.25942 8.80169 6.93375 7.56252 6.64879 6.50692C6.28241 5.45133 5.95674 4.30395 5.83461 4.21215Z" fill="white"/>
<path d="M27.1256 15.9155H27.085V15.8696C27.085 15.8237 27.085 15.7778 27.5734 15.2271C28.5097 14.1256 30.6673 11.6013 31.3187 9.71963C31.6851 8.7099 32.0107 7.47072 32.2956 6.41512C32.7841 4.6252 32.9877 3.98267 33.1505 3.98267C33.1912 3.98267 33.2319 4.02857 33.2727 4.12036C33.3133 4.30394 33.3133 6.09386 31.9292 10.0408C31.0337 12.5652 27.2477 15.9155 27.1256 15.9155ZM33.1505 4.12036C33.0284 4.21215 32.7028 5.35953 32.3771 6.46102C32.0921 7.51662 31.7257 8.7099 31.4 9.76553C30.708 11.6931 28.5505 14.2633 27.6141 15.3188C27.5327 15.4106 27.4513 15.5024 27.4106 15.5942C28.3469 14.814 31.1151 12.1062 31.8478 10.0408C33.3133 5.7267 33.1912 4.16625 33.1505 4.12036Z" fill="white"/>
<path d="M16.135 22.1105C15.8094 22.1105 15.2802 22.0646 14.6288 21.7892C13.8147 21.4679 13.2447 21.009 13.1633 20.6877C13.1227 20.5959 13.1633 20.5042 13.2041 20.4583C13.2855 20.3206 13.489 20.2747 13.8147 20.2747C14.2625 20.2747 14.8731 20.4124 15.443 20.6418C15.6059 20.6877 15.8501 20.7336 16.1758 20.7336C16.4608 20.7336 16.7457 20.7336 17.0714 20.6877C17.3564 20.6877 17.6006 20.6418 17.8042 20.6418C18.2112 20.6418 18.3741 20.6877 18.4148 20.8254C18.4555 20.9631 18.2927 21.2385 16.8678 21.9728C16.6643 22.0646 16.4201 22.1105 16.135 22.1105ZM13.774 20.3665C13.489 20.3665 13.3262 20.4124 13.2447 20.5041C13.2041 20.55 13.2041 20.5959 13.2041 20.6418C13.2447 20.8713 13.7332 21.2844 14.6288 21.6515C15.1581 21.8351 15.6466 21.9728 16.0944 21.9728C16.3793 21.9728 16.5829 21.9269 16.7457 21.8351C18.1298 21.1008 18.2519 20.8713 18.2519 20.8254C18.2519 20.8254 18.2112 20.7336 17.7634 20.7336C17.5599 20.7336 17.2749 20.7336 17.0307 20.7795C16.7457 20.7795 16.4201 20.8254 16.135 20.8254C15.7687 20.8254 15.5245 20.7795 15.3616 20.7336C14.7917 20.5041 14.2218 20.3665 13.774 20.3665Z" fill="white"/>
<path d="M32.0114 15.3645C31.9707 15.3645 31.9707 15.3645 31.93 15.3645C31.8893 15.3645 31.8486 15.3186 31.8079 15.2268C31.6858 14.9056 32.1336 14.1253 32.9884 12.6107C33.9247 10.9585 35.2274 8.66375 35.716 6.73614C36.0823 5.2675 36.3265 4.02831 36.5301 2.97272C36.8965 1.22869 37.0593 0.264893 37.5071 0.264893C37.5479 0.264893 37.5885 0.264893 37.6292 0.264893C37.9142 0.356684 38.2399 0.815638 38.4434 1.36638C38.7283 2.1925 39.1761 4.48727 37.3036 8.06712C35.6752 11.1421 32.907 15.3645 32.0114 15.3645ZM37.5071 0.402579C37.1407 0.402579 36.9372 1.45818 36.6522 3.01861C36.4487 4.02831 36.2044 5.31339 35.838 6.78204C35.3088 8.75555 34.0469 11.0503 33.0699 12.7025C32.3778 13.8958 31.8078 14.9515 31.8893 15.2268C31.8893 15.2727 31.93 15.2727 31.93 15.2727H31.9707C32.7441 15.2727 35.3902 11.4175 37.1407 8.06712C39.0133 4.53317 38.5656 2.28429 38.2806 1.45818C38.0363 0.815638 37.7514 0.49437 37.5479 0.402579C37.5479 0.402579 37.5479 0.402579 37.5071 0.402579Z" fill="white"/>
<path d="M22.8517 21.9738C22.5668 21.9738 22.3225 21.9279 22.1596 21.8361C20.7349 21.1018 20.572 20.8263 20.6128 20.6886C20.6534 20.5509 20.8163 20.5051 21.2233 20.5051C21.4269 20.5051 21.7119 20.505 21.9561 20.5509C22.2411 20.5509 22.5668 20.5969 22.8517 20.5969C23.2181 20.5969 23.4623 20.551 23.6252 20.5051C24.1951 20.2756 24.8057 20.1379 25.2535 20.1379C25.5792 20.1379 25.7828 20.1838 25.8642 20.3215C25.9049 20.4133 25.9455 20.4591 25.9049 20.5509C25.8234 20.8722 25.2535 21.3312 24.4393 21.6525C23.7066 21.9279 23.1773 21.9738 22.8517 21.9738ZM21.1827 20.6428C20.7349 20.6428 20.6941 20.7346 20.6941 20.7346C20.6941 20.7805 20.8163 21.01 22.2004 21.7443C22.3632 21.8361 22.5668 21.882 22.8517 21.882C23.2995 21.882 23.8287 21.7902 24.3173 21.5607C25.2128 21.1935 25.6606 20.7804 25.742 20.5509C25.742 20.505 25.742 20.4591 25.7014 20.4132C25.6199 20.3214 25.4571 20.2756 25.1721 20.2756C24.7243 20.2756 24.1544 20.4133 23.5845 20.6428C23.4216 20.6887 23.1773 20.7346 22.811 20.7346C22.526 20.7346 22.2411 20.7345 21.9154 20.6886C21.6711 20.6427 21.3862 20.6428 21.1827 20.6428Z" fill="white"/>
<path d="M11.5752 20.6422C12.6743 21.1471 14.5063 21.3307 14.2213 21.7438C13.8956 22.1568 12.1044 21.8815 11.0053 21.3766C9.90612 20.8717 9.29555 20.1833 9.58046 19.7702C9.86547 19.3571 10.4761 20.1374 11.5752 20.6422Z" fill="white"/>
<path d="M27.4102 20.5507C26.311 21.0555 24.4791 21.2391 24.7641 21.6522C25.0897 22.0652 26.8809 21.7898 27.9801 21.285C29.0792 20.7802 29.6898 20.0917 29.4048 19.6787C29.0792 19.2656 28.5093 20.0458 27.4102 20.5507Z" fill="white"/>
<path d="M13.4072 17.2465C14.0585 18.0727 18.5366 20.3215 18.3329 20.4133C18.1294 20.551 13.2851 18.5316 12.6338 17.7055C11.9824 16.8794 11.616 16.0992 11.8603 15.9615C12.0638 15.8238 12.7559 16.4204 13.4072 17.2465Z" fill="white"/>
<path d="M25.5389 17.1548C24.8876 17.9809 20.4096 20.2297 20.6132 20.3215C20.8167 20.4592 25.6611 18.4398 26.3124 17.6137C26.9638 16.7876 27.3301 16.0074 27.0859 15.8697C26.8823 15.732 26.1902 16.3286 25.5389 17.1548Z" fill="white"/>
<path d="M11.7373 11.7845C10.8824 9.71932 9.90544 8.20474 9.49831 8.34243C9.09126 8.48012 9.45766 10.27 10.3125 12.3353C11.1674 14.4007 16.1339 19.0819 16.541 18.8984C16.9073 18.7607 12.5515 13.8499 11.7373 11.7845Z" fill="white"/>
<path d="M27.2476 11.6933C28.1024 9.62794 29.0795 8.11343 29.4865 8.25112C29.8937 8.3888 29.5273 10.1787 28.6723 12.2441C27.8175 14.3093 22.851 18.9906 22.4439 18.807C22.0776 18.6693 26.3927 13.7586 27.2476 11.6933Z" fill="white"/>
<path d="M6.97487 15.5019C6.07928 15.5019 3.31108 11.2796 1.72343 8.25046C-0.189882 4.62473 0.257914 2.32995 0.542877 1.50383C0.746421 0.907193 1.03138 0.494135 1.31634 0.402344C1.35706 0.402344 1.39776 0.402344 1.43847 0.402344C1.88627 0.402344 2.04911 1.36615 2.41548 3.11017C2.61903 4.11987 2.86328 5.40494 3.22966 6.8736C3.75887 8.8471 5.02085 11.096 5.95715 12.7482C6.81204 14.2628 7.25983 15.043 7.13771 15.3642C7.13771 15.4101 7.05629 15.456 7.01558 15.5019C7.05629 15.5019 7.01558 15.5019 6.97487 15.5019ZM1.43847 0.494135C1.39776 0.494135 1.39776 0.494135 1.35706 0.494135C1.19422 0.585925 0.868547 0.907193 0.665003 1.54973C0.380041 2.37585 -0.0677561 4.62473 1.80485 8.15867C3.55533 11.5091 6.2014 15.3642 6.97487 15.3642H7.01558C7.05629 15.3642 7.05629 15.3183 7.05629 15.3183C7.13771 15.043 6.56778 13.9874 5.87573 12.7941C4.93943 11.1419 3.63675 8.8471 3.10754 6.8736C2.74116 5.40494 2.4969 4.11987 2.29335 3.11017C2.00839 1.50383 1.80485 0.494135 1.43847 0.494135Z" fill="white"/>
<path d="M17.8454 22.3405C17.3568 22.6617 16.7463 23.0748 16.8277 23.7632C16.8683 24.4058 17.3976 25.0484 17.8046 25.5073C17.9675 25.6909 18.2524 25.4155 18.0896 25.2319C17.764 24.8648 17.3568 24.4058 17.2347 23.9009C17.0719 23.3043 17.6419 22.983 18.0489 22.7535C18.2524 22.524 18.0489 22.2028 17.8454 22.3405Z" fill="white"/>
<path d="M20.8558 22.6618C21.3036 22.7995 21.67 23.3502 21.7921 23.8092C21.955 24.4977 21.3443 24.9107 20.8558 25.1861C20.6523 25.3238 20.8151 25.6909 21.0187 25.5533C21.5886 25.1861 22.3213 24.7271 22.1992 23.901C22.1178 23.2584 21.5886 22.4323 20.9779 22.2946C20.7337 22.2028 20.6115 22.57 20.8558 22.6618Z" fill="white"/>
<path d="M23.1777 25.6453C22.9334 25.2782 22.6484 24.9569 22.3635 24.6356C22.0379 24.2226 21.6715 23.8095 21.3865 23.3506C20.8166 22.4786 20.2874 21.4689 19.7581 20.1379C20.0024 19.8167 20.2466 19.4954 20.4909 19.22C20.613 19.0824 20.7759 18.8988 20.9387 18.7611C21.5493 18.1186 22.16 17.476 22.2007 16.4662C22.2007 15.9614 22.0379 15.5025 21.7121 15.1353L21.6715 15.0894C22.16 14.2633 22.7299 13.529 23.4626 12.8864C23.5441 12.8405 23.5441 12.7029 23.5441 12.6111C23.5034 12.5193 23.422 12.4275 23.2998 12.4275C23.2591 12.4275 23.1777 12.4275 23.137 12.4734C22.4042 13.1159 21.7936 13.8961 21.3051 14.7681C20.9794 14.5846 20.5723 14.4469 20.1652 14.4469C19.6767 14.4469 19.2697 14.5846 18.9033 14.9058C18.374 15.3648 18.0483 15.9614 18.0077 16.6498C17.9262 17.5218 18.2926 18.5316 18.9439 19.3577L18.9847 19.4036C19.0661 19.6331 19.1475 19.8167 19.2289 20.0461C18.6183 20.9182 18.0483 21.8819 17.6006 22.9375C17.112 24.039 16.7864 25.1864 16.5421 26.4255L16.5015 26.5632C16.42 26.9763 16.3386 27.4812 16.4607 27.9402C16.5829 28.445 17.1935 28.5827 17.5599 28.6745H17.6413C17.967 28.7663 18.2926 28.8122 18.659 28.8581V28.904C18.6183 28.904 18.6183 28.9499 18.5776 28.9958V29.1793C18.5776 29.2252 18.5776 29.2711 18.5776 29.317C18.4555 29.5465 18.4147 29.8219 18.4961 30.0972L18.5369 30.189C18.5776 30.2808 18.659 30.3267 18.7404 30.3267C18.8219 30.3267 18.9033 30.2808 18.9439 30.189L18.9847 30.0972C18.9847 30.0054 19.0254 29.9596 19.0254 29.8678C19.1068 29.8219 19.1475 29.7301 19.1475 29.6383V29.5465V28.9499C19.3103 28.9499 19.4732 28.9499 19.6767 28.9499C20.1245 28.9499 20.5316 28.9499 20.9387 28.904C20.898 28.9499 20.898 28.9958 20.898 29.0417C20.8573 29.5465 20.8573 30.0513 20.9794 30.5562L21.0201 30.6939C21.0608 30.7398 21.1422 30.7857 21.1829 30.7857C21.2643 30.7857 21.3865 30.7398 21.4272 30.6021V30.5103L21.468 30.189C21.468 30.1431 21.468 30.0513 21.4272 30.0054L21.3865 29.9596C21.3458 29.6383 21.3458 29.3629 21.3865 29.0417C21.3865 28.9958 21.3865 28.904 21.3458 28.8581C21.3865 28.8581 21.4272 28.8581 21.5086 28.8581C22.282 28.8122 23.2998 28.5827 23.7476 27.6648C23.9104 27.114 23.7476 26.4256 23.1777 25.6453ZM17.0714 26.242C17.112 26.1502 17.112 26.0584 17.1528 25.9666C17.397 24.7733 17.8448 23.5342 18.4147 22.3409C18.7404 21.7443 19.0661 21.1017 19.4732 20.5051C20.2874 22.3868 21.0608 23.7177 21.9971 24.8651C22.0379 24.9569 22.1193 25.0028 22.2007 25.0946C22.7299 25.6912 23.422 26.5633 23.2998 27.2518C23.2591 27.5271 23.0556 27.8025 22.6892 27.9861C22.2414 28.2614 21.6307 28.3073 21.1829 28.3073C20.6944 28.3532 20.206 28.3532 19.7581 28.3532C19.5546 28.3532 19.3511 28.3532 19.1882 28.3532C18.4961 28.3073 17.8448 28.2155 17.2749 28.032C16.6642 27.8943 16.9085 26.8846 17.0714 26.242ZM20.8166 18.2104L20.6944 18.3021C20.2874 18.7152 19.921 19.1741 19.5546 19.5872C19.3511 19.0365 19.1475 18.4857 18.9439 17.9349V17.889C18.9033 17.7972 18.8219 17.7513 18.7404 17.7513C18.6997 17.7513 18.659 17.7514 18.6183 17.7973C18.3334 16.9252 18.4555 16.0532 19.0254 15.4107C19.3103 15.0894 19.7175 14.9058 20.1245 14.9058C20.613 14.9058 21.1016 15.1353 21.4272 15.5483C21.6307 15.7778 21.8343 16.1909 21.7121 16.7875C21.6307 17.3383 21.1829 17.7972 20.8166 18.2104Z" fill="white"/>
<path d="M18.0473 15.1348C18.0881 15.2266 18.1695 15.2725 18.251 15.2725C18.3323 15.2725 18.4137 15.2266 18.4545 15.1348C18.4951 15.043 18.4951 14.9512 18.4545 14.9054L17.1925 12.7024C17.1518 12.6106 17.0704 12.5647 16.9889 12.5647C16.9075 12.5647 16.8261 12.6106 16.7854 12.7024C16.7447 12.7942 16.7447 12.886 16.7854 12.9319L18.0473 15.1348Z" fill="white"/>
<path d="M19.1473 14.4466C19.2287 14.4466 19.3102 14.4007 19.3509 14.3548C19.3916 14.3089 19.3916 14.2171 19.3916 14.1253C19.2287 13.4828 19.1066 12.7944 19.066 12.106C19.066 11.9683 18.9438 11.8765 18.8217 11.8765C18.7403 11.8765 18.6996 11.9224 18.6588 11.9683C18.6182 12.0142 18.6182 12.0601 18.6182 12.1519C18.6588 12.8862 18.7809 13.5746 18.9438 14.263C18.9845 14.3548 19.066 14.4466 19.1473 14.4466Z" fill="white"/>
<path d="M20.4489 14.0797C20.5304 14.0797 20.6118 14.0338 20.6525 13.9879C20.6932 13.942 20.7339 13.8502 20.6932 13.8043C20.571 13.0699 20.7746 12.3356 21.3038 11.739C21.3852 11.6472 21.3852 11.5554 21.3446 11.4636C21.3038 11.3718 21.2224 11.3259 21.141 11.3259C21.1003 11.3259 21.0188 11.3718 20.9782 11.4177C20.3675 12.1061 20.1232 13.024 20.2454 13.942C20.2454 14.0338 20.3268 14.0797 20.4489 14.0797Z" fill="white"/>
<path d="M21.2231 15.6396C21.1416 15.6396 21.0195 15.6855 21.0195 15.8232C20.7753 16.6035 20.246 17.4296 19.6354 17.4296C19.4726 17.4296 19.3504 17.3837 19.1876 17.2919C19.0654 17.2001 18.9027 17.2919 18.8619 17.4755C18.8213 17.5673 18.8619 17.705 18.9841 17.7509C19.2283 17.8885 19.4318 17.9344 19.6761 17.9344C20.531 17.9344 21.1823 16.9247 21.508 16.0068C21.5487 15.915 21.508 15.8691 21.4673 15.7773C21.3859 15.6855 21.3045 15.6396 21.2231 15.6396Z" fill="white"/>
<path d="M7.62584 9.85681C8.52144 12.3811 11.9817 15.961 11.8596 16.0069C11.7782 16.0528 7.99222 12.7023 7.09662 10.1781C5.71253 6.13933 5.71253 4.3953 5.75323 4.25761C5.95677 3.56918 6.73024 7.28671 7.62584 9.85681Z" fill="white"/>
<path d="M31.3598 9.71926C30.4643 12.2894 27.004 15.8234 27.0854 15.8692C27.1669 15.9151 30.9528 12.5648 31.8484 10.0406C33.2732 6.04765 33.2732 4.30362 33.2325 4.12004C32.9882 3.47751 32.2554 7.19504 31.3598 9.71926Z" fill="white"/>
<path d="M15.4019 20.6422C16.3789 21.0553 20.5719 19.9079 16.8267 21.8814C16.4603 22.065 15.6461 22.065 14.6691 21.6978C13.6921 21.2848 13.0408 20.734 13.2443 20.4587C13.4071 20.1833 14.3842 20.2751 15.4019 20.6422Z" fill="white"/>
<path d="M35.7563 6.73538C36.774 2.78836 36.8555 0.0805363 37.5882 0.355909C38.321 0.631281 39.6237 3.4309 37.1812 8.11224C35.3899 11.5085 32.6218 15.5932 31.889 15.3637C31.197 15.0425 34.82 10.4529 35.7563 6.73538Z" fill="white"/>
<path d="M23.5843 20.5507C22.6072 20.9638 18.4142 19.8164 22.1594 21.7899C22.4851 21.9735 23.34 21.9735 24.317 21.6063C25.294 21.1932 25.9454 20.6425 25.7418 20.3671C25.5383 20.0918 24.5613 20.1377 23.5843 20.5507Z" fill="white"/>
<path d="M3.18909 6.82668C2.17138 2.87967 2.08996 0.171845 1.3572 0.447218C0.624439 0.72259 -0.678244 3.52221 1.76429 8.20355C3.55547 11.5998 6.32367 15.6845 7.05643 15.4091C7.7892 15.1338 4.1661 10.5442 3.18909 6.82668Z" fill="white"/>
<path d="M5.9575 7.47069C4.93977 4.30391 4.49198 -1.38712 3.55567 2.14682C3.43355 2.51398 3.02646 4.99234 3.96276 8.06733C4.89907 11.1424 6.52741 13.3912 6.93451 13.2994C7.30088 13.1617 6.8938 10.3163 5.9575 7.47069Z" fill="white"/>
<path d="M6.8936 18.1637C8.80691 19.5865 12.1044 20.3667 12.5928 20.0914C13.0813 19.816 9.86534 18.6227 8.64408 17.1081C7.42282 15.5936 5.55021 14.8593 5.06171 15.1805C4.61391 15.4559 5.26525 16.9245 6.8936 18.1637Z" fill="white"/>
<path d="M32.9883 7.37891C34.0467 4.21212 34.4538 -1.52481 35.4308 2.05504C35.5122 2.42219 35.96 4.90055 35.0238 7.97554C34.0874 11.0505 32.4591 13.2995 32.0519 13.1618C31.6449 13.07 32.0519 10.2244 32.9883 7.37891Z" fill="white"/>
<path d="M32.0921 18.0725C30.1788 19.4952 26.8814 20.2754 26.3929 20.0001C25.9043 19.7247 29.1203 18.5314 30.3416 17.0169C31.5629 15.5022 33.4355 14.7679 33.924 15.0892C34.3718 15.3646 33.7204 16.8333 32.0921 18.0725Z" fill="white"/>
<path d="M28.3063 16.3285C26.9222 18.2102 23.0142 19.8165 23.3806 20.0001C23.747 20.1837 28.2249 18.9445 29.609 17.0628C30.9931 15.1811 31.8073 13.5289 31.4817 13.2994C31.0745 13.1159 29.6904 14.4468 28.3063 16.3285Z" fill="white"/>
<path d="M15.4826 20.1836C14.7092 20.1836 10.679 18.9903 9.33557 17.2004C8.11433 15.5481 7.30016 14.0336 7.38157 13.5287C7.38157 13.437 7.46299 13.3911 7.5037 13.3452C7.54441 13.3452 7.58512 13.2993 7.62583 13.2993C8.11433 13.2993 9.41705 14.5843 10.7197 16.3743C11.5746 17.5217 13.3657 18.5773 14.5463 19.2657C15.4012 19.7706 15.6862 19.9082 15.6862 20.0459C15.6862 20.0918 15.6862 20.1377 15.6455 20.1377C15.6048 20.1836 15.564 20.1836 15.4826 20.1836ZM7.62583 13.437C7.58512 13.437 7.58512 13.437 7.58512 13.437C7.58512 13.437 7.54441 13.4829 7.54441 13.5287C7.46299 13.8959 8.11433 15.2728 9.4577 17.1087C10.7604 18.8527 14.7498 20.0459 15.5234 20.0459C15.564 20.0459 15.6048 20.0459 15.6048 20.0459C15.5234 19.9541 15.0348 19.6329 14.5463 19.3575C13.3251 18.6691 11.5339 17.6135 10.679 16.4661C9.25418 14.5843 7.99221 13.437 7.62583 13.437Z" fill="white"/>
<path d="M10.6785 16.4197C12.0626 18.3015 15.9706 19.8619 15.6042 20.0914C15.2378 20.275 10.7599 19.0358 9.37576 17.1541C7.99169 15.2724 7.17751 13.6201 7.50319 13.3907C7.86956 13.2071 9.29437 14.5839 10.6785 16.4197Z" fill="white"/>
</g>
</g>
<defs>
<clipPath id="clip0_11401_9262">
<rect width="128.7" height="30.6" fill="white" transform="translate(0.299805 0.264893)"/>
</clipPath>
</defs>
</svg>
